<svg id="Layer_1" data-name="Layer 1" xmlns="http://www.w3.org/2000/svg" viewBox="0 0 47.03 47.03"><defs><style>.cls-1,.cls-2{fill:#76bc21;}.cls-1,.cls-3,.cls-4{stroke:#76bc21;stroke-miterlimit:10;}.cls-1{stroke-width:0.68px;}.cls-3,.cls-4{fill:none;}.cls-3{stroke-width:1.53px;}.cls-4{stroke-width:1.59px;}</style></defs><path class="cls-1" d="M36.53,21.56a1.1,1.1,0,0,0-.65-.28L23,21.09c-.45,0-.81,0-.81,1.52v2.73a.81.81,0,0,0,.81.81H35.88a.81.81,0,0,0,.81-.81V22.6C36.69,22.38,36.68,21.71,36.53,21.56Zm-15,5.24a2.06,2.06,0,0,1-.6-1.46V22.61A2.06,2.06,0,0,1,23,20.54H35.88A2.07,2.07,0,0,1,38,22.6v2.73a2.07,2.07,0,0,1-2.07,2.07H23A2.07,2.07,0,0,1,21.56,26.8Z"/><path class="cls-1" d="M30.32,36a.6.6,0,0,1-.19-.45V31.8a.64.64,0,0,1,.42-.6l9.1-3.2V24.48H38.12a.64.64,0,0,1,0-1.27h2.16a.64.64,0,0,1,.45.19h0a.62.62,0,0,1,.18.44v4.6a.63.63,0,0,1-.43.6l-9.1,3.21v3.34a.63.63,0,0,1-1.07.45Z"/><path class="cls-1" d="M28.61,45.05a.64.64,0,0,1-.19-.45V36.19a.63.63,0,0,1,.63-.63h3.49a.63.63,0,0,1,.63.63v7.35a.63.63,0,0,1-1.26,0V36.82H29.68V44.6a.63.63,0,0,1-1.07.45Z"/><path class="cls-2" d="M23.51,47A23.52,23.52,0,1,1,47,23.51,23.54,23.54,0,0,1,23.51,47Zm0-45.15A21.64,21.64,0,1,0,45.15,23.51,21.65,21.65,0,0,0,23.51,1.88Z"/><line class="cls-3" x1="6.08" y1="8.61" x2="19.41" y2="8.61"/><line class="cls-3" x1="2.31" y1="16.06" x2="19.41" y2="16.06"/><line class="cls-3" x1="1.14" y1="23.51" x2="19.41" y2="23.51"/><line class="cls-3" x1="2.31" y1="30.96" x2="25.94" y2="30.96"/><line class="cls-3" x1="6.08" y1="38.41" x2="25.94" y2="38.41"/><line class="cls-3" x1="15.8" y1="8.51" x2="15.8" y2="2.31"/><line class="cls-3" x1="15.8" y1="22.93" x2="15.8" y2="16.73"/><line class="cls-3" x1="15.8" y1="37.84" x2="15.8" y2="31.64"/><line class="cls-3" x1="21.84" y1="45.3" x2="21.84" y2="39.1"/><line class="cls-3" x1="8.18" y1="30.38" x2="8.18" y2="24.18"/><line class="cls-3" x1="8.18" y1="15.47" x2="8.18" y2="9.27"/><path class="cls-4" d="M35.17,4.27a2.35,2.35,0,0,0-1.43.45,2.44,2.44,0,0,1-1.44.45,2.41,2.41,0,0,1-1.43-.45,2.38,2.38,0,0,0-1.44-.45A2.35,2.35,0,0,0,28,4.72a2.44,2.44,0,0,1-1.44.45,2.41,2.41,0,0,1-1.43-.45,2.38,2.38,0,0,0-1.44-.45,2.35,2.35,0,0,0-1.43.45,2.44,2.44,0,0,1-1.44.45"/><path class="cls-4" d="M38,8.44A2.41,2.41,0,0,1,36.61,8a2.38,2.38,0,0,0-1.44-.45A2.35,2.35,0,0,0,33.74,8a2.44,2.44,0,0,1-1.44.44A2.41,2.41,0,0,1,30.87,8a2.38,2.38,0,0,0-1.44-.45A2.35,2.35,0,0,0,28,8a2.44,2.44,0,0,1-1.44.44A2.41,2.41,0,0,1,25.13,8a2.38,2.38,0,0,0-1.44-.45A2.35,2.35,0,0,0,22.26,8a2.44,2.44,0,0,1-1.44.44"/><path class="cls-4" d="M38,11.72a2.35,2.35,0,0,1-1.43-.45,2.44,2.44,0,0,0-1.44-.44,2.41,2.41,0,0,0-1.43.44,2.38,2.38,0,0,1-1.44.45,2.35,2.35,0,0,1-1.43-.45,2.44,2.44,0,0,0-1.44-.44,2.41,2.41,0,0,0-1.43.44,2.38,2.38,0,0,1-1.44.45,2.35,2.35,0,0,1-1.43-.45,2.44,2.44,0,0,0-1.44-.44,2.41,2.41,0,0,0-1.43.44,2.38,2.38,0,0,1-1.44.45"/><path class="cls-4" d="M38,15a2.35,2.35,0,0,1-1.43-.45,2.44,2.44,0,0,0-1.44-.44,2.41,2.41,0,0,0-1.43.44A2.38,2.38,0,0,1,32.3,15a2.35,2.35,0,0,1-1.43-.45,2.44,2.44,0,0,0-1.44-.44,2.41,2.41,0,0,0-1.43.44,2.38,2.38,0,0,1-1.44.45,2.35,2.35,0,0,1-1.43-.45,2.44,2.44,0,0,0-1.44-.44,2.41,2.41,0,0,0-1.43.44,2.38,2.38,0,0,1-1.44.45"/><path class="cls-4" d="M38,18.28a2.41,2.41,0,0,1-1.43-.45,2.44,2.44,0,0,0-1.44-.45,2.41,2.41,0,0,0-1.43.45,2.44,2.44,0,0,1-1.44.45,2.41,2.41,0,0,1-1.43-.45,2.44,2.44,0,0,0-1.44-.45,2.41,2.41,0,0,0-1.43.45,2.44,2.44,0,0,1-1.44.45,2.41,2.41,0,0,1-1.43-.45,2.44,2.44,0,0,0-1.44-.45,2.41,2.41,0,0,0-1.43.45,2.44,2.44,0,0,1-1.44.45"/><path class="cls-4" d="M36.85,21.56a3.3,3.3,0,0,0-1.68-.51,2.35,2.35,0,0,0-1.43.45,2.44,2.44,0,0,1-1.44.44,2.41,2.41,0,0,1-1.43-.44,2.38,2.38,0,0,0-1.44-.45A2.35,2.35,0,0,0,28,21.5a2.44,2.44,0,0,1-1.44.44,2.41,2.41,0,0,1-1.43-.44,2.38,2.38,0,0,0-1.44-.45A3.19,3.19,0,0,0,22,21.6"/></svg>