<svg id="Layer_1" data-name="Layer 1" xmlns="http://www.w3.org/2000/svg" viewBox="0 0 47.03 47.03"><defs><style>.cls-1{fill:#76bc21;}</style></defs><path class="cls-1" d="M23.51,47A23.52,23.52,0,1,1,47,23.51,23.54,23.54,0,0,1,23.51,47Zm0-45.15A21.64,21.64,0,1,0,45.15,23.51,21.65,21.65,0,0,0,23.51,1.88Z"/><rect class="cls-1" x="4.5" y="34.89" width="37.84" height="1.88"/><rect class="cls-1" x="7.28" y="38.63" width="31.79" height="1.88"/><path class="cls-1" d="M33.69,20.32c-2.49,0-4.51-2.36-4.51-5.25,0-2.57,3.34-7.92,3.72-8.52l.79-1.25.8,1.25c.38.6,3.72,6,3.72,8.52C38.21,18,36.19,20.32,33.69,20.32Zm0-11.45c-1.23,2.13-2.63,5-2.63,6.2,0,1.86,1.18,3.37,2.63,3.37s2.64-1.51,2.64-3.37C36.33,13.82,34.93,11,33.69,8.87Z"/><path class="cls-1" d="M12.75,24l-1.52-1.27a2.63,2.63,0,0,0-1.93-.4h0a2,2,0,0,1-1.8-.62,2.54,2.54,0,0,1-.69-2.16A2.22,2.22,0,0,1,7.93,18a2.83,2.83,0,0,1,1.88-.3c2.35.42,3,2.9,2.95,4.3Zm-3-3.58a4.14,4.14,0,0,1,.81.07,1.48,1.48,0,0,0-1.08-.93,1,1,0,0,0-.62.08.38.38,0,0,0-.2.24.67.67,0,0,0,.18.52c.09.09.14.08.16.08A4.93,4.93,0,0,1,9.75,20.43Z"/><path class="cls-1" d="M29.55,33.43,31,30.19c.26-.59,2.66-5.74,6-5.61a3.31,3.31,0,0,1,2.09.81,2.62,2.62,0,0,1,.9,2,3,3,0,0,1-1.32,2.29,2.31,2.31,0,0,1-2.15.27c-1.06-.41-3.08.63-4.1,1.38Zm7.34-7a3.87,3.87,0,0,0-2.53,1.78,4.33,4.33,0,0,1,2.82,0h0a.44.44,0,0,0,.44-.08,1.08,1.08,0,0,0,.48-.79.71.71,0,0,0-.27-.54,1.41,1.41,0,0,0-.9-.33Z"/><path class="cls-1" d="M23.21,33.8c-3.89,0-7.06-3.72-7.06-8.31,0-4.29,6-13.84,6.27-14.24L23.21,10l.8,1.26c.25.4,6.27,10,6.27,14.24C30.28,30.08,27.11,33.8,23.21,33.8Zm0-20.26C21.26,16.8,18,22.79,18,25.49c0,3.55,2.33,6.44,5.19,6.44s5.2-2.89,5.2-6.44C28.41,22.79,25.16,16.8,23.21,13.54Z"/><path class="cls-1" d="M17.22,33.68l-2.86-2.11C13.56,31,11,29.43,9.55,30a2.52,2.52,0,0,1-2.34-.29,3.26,3.26,0,0,1-1.44-2.51,2.82,2.82,0,0,1,1-2.19,3.66,3.66,0,0,1,2.3-.88c3.72-.15,6.43,5.66,6.72,6.32Zm-7-5.69a6.61,6.61,0,0,1,2.19.43C11.47,27.13,10.31,26,9.11,26h0A1.8,1.8,0,0,0,8,26.4a.94.94,0,0,0-.36.72,1.48,1.48,0,0,0,.61,1,.65.65,0,0,0,.63.1A3.63,3.63,0,0,1,10.23,28Z"/><path class="cls-1" d="M33.56,16a3.48,3.48,0,0,0,1.66-2.89,4.48,4.48,0,0,1,.37,1.5,2.85,2.85,0,0,1-1.66,2.77,1.42,1.42,0,0,1-.45.08,1.49,1.49,0,0,1-.74-.2C32.52,17,32.54,16.64,33.56,16Z"/><path class="cls-1" d="M23.09,27.78a6.77,6.77,0,0,0,3.23-5.62A8.72,8.72,0,0,1,27,25.07a5.58,5.58,0,0,1-3.23,5.39,2.94,2.94,0,0,1-.88.14,2.86,2.86,0,0,1-1.43-.38C21.07,29.78,21.1,29,23.09,27.78Z"/></svg>