<svg id="Layer_1" data-name="Layer 1" xmlns="http://www.w3.org/2000/svg" viewBox="0 0 152.12 142.6">
  <defs>
    <style>
      .cls-1 {
        fill: #5c0f8b;
      }
    </style>
  </defs>
  <g>
    <ellipse class="cls-1" cx="40.03" cy="23.75" rx="30.54" ry="12.11"/>
    <path class="cls-1" d="M149.74,124.83l-11.55,11.55a8.17,8.17,0,0,1-11.54,0l-25-25a2.73,2.73,0,0,0-3.85,0L92,117.14a8.19,8.19,0,0,1,0,11.54L80.49,140.22a8.17,8.17,0,0,1-11.54,0l-3.85-3.84a8.2,8.2,0,0,1,0-11.55l11.54-11.54a8.19,8.19,0,0,1,11.54,0L94,107.52a8.17,8.17,0,0,1,11.54,0l25,25a2.73,2.73,0,0,0,3.85,0L145.89,121a2.73,2.73,0,0,0,0-3.85,2.72,2.72,0,1,1,3.85-3.85A8.17,8.17,0,0,1,149.74,124.83ZM88.18,121l-3.84-3.85a2.73,2.73,0,0,0-3.85,0L69,128.68a2.73,2.73,0,0,0,0,3.85l3.84,3.85a2.73,2.73,0,0,0,3.85,0l11.54-11.55A2.7,2.7,0,0,0,88.18,121Zm38.47-7.7L88.18,74.82a8.17,8.17,0,0,1,0-11.54l7.7-7.69a8.15,8.15,0,0,1,11.54,0l38.47,38.47a8.17,8.17,0,0,1,0,11.54l-7.7,7.69A8.15,8.15,0,0,1,126.65,113.29ZM92,71l38.47,38.47a2.73,2.73,0,0,0,3.85,0l7.69-7.7a2.71,2.71,0,0,0,0-3.85L103.57,59.43a2.72,2.72,0,0,0-3.85,0L92,67.13A2.71,2.71,0,0,0,92,71Z"/>
    <path class="cls-1" d="M40,5.13c21.3,0,34.9,8.17,34.9,13.79S61.33,32.72,40,32.72s-34.9-8.17-34.9-13.8S18.72,5.13,40,5.13M40,0C17.92,0,0,8.47,0,18.92S17.92,37.85,40,37.85s40-8.47,40-18.93S62.14,0,40,0Z"/>
    <path class="cls-1" d="M74.93,32.13V90.25c0,4.91-13.92,12.34-34.9,12.34S5.13,95.16,5.13,90.25V32.13C13.28,37,25.67,40.06,40,40.06s26.75-3,34.9-7.93m5.13-14.66c0,9.65-17.92,17.46-40,17.46S0,27.12,0,17.47V90.25c0,9.65,17.92,17.47,40,17.47s40-7.82,40-17.47V17.47Z"/>
  </g>
</svg>
