<svg id="Layer_1" data-name="Layer 1" xmlns="http://www.w3.org/2000/svg" viewBox="0 0 119.9 116.92">
  <defs>
    <style>
      .cls-1 {
        fill: #5c0f8b;
      }
    </style>
  </defs>
  <g>
    <path class="cls-1" d="M63.51,92.62l-15.9,15.9a25.71,25.71,0,0,1-36.33,0l-3.13-3.13A27.93,27.93,0,0,1,0,84.72L.58,68.78a10.71,10.71,0,0,1,18.27-7.19,10.8,10.8,0,0,1,1.36,1.67L31.72,51.75a9.64,9.64,0,0,1,15.15,2A9.63,9.63,0,0,1,58.5,65.34,9.65,9.65,0,0,1,62.31,78a9.53,9.53,0,0,1,1.2,1A9.65,9.65,0,0,1,63.51,92.62ZM59,88.08a3.21,3.21,0,1,0-4.54-4.54l-9.84,9.84a2.14,2.14,0,1,1-3-3L56,76a3.21,3.21,0,1,0-4.54-4.54L37,85.81a2.14,2.14,0,1,1-3-3L51.4,65.38a3.21,3.21,0,0,0-4.54-4.54L29.45,78.25a2.14,2.14,0,0,1-3-3L40.8,60.84a3.21,3.21,0,1,0-4.54-4.55L17.2,75.35a1.06,1.06,0,0,1-1.52,0,1,1,0,0,1-.3-.79l.18-5.25a4.31,4.31,0,0,0-1.25-3.18,4.14,4.14,0,0,0-5.94,0A4.77,4.77,0,0,0,7,69.3L6.44,85a21.41,21.41,0,0,0,6.25,15.9L15.82,104a19.3,19.3,0,0,0,27.25,0Z"/>
    <path class="cls-1" d="M5.78,53.72A2.8,2.8,0,0,1,3,50.92v-15A21.17,21.17,0,0,1,24.12,14.75H75.91a2.81,2.81,0,0,1,0,5.61H24.12A15.55,15.55,0,0,0,8.58,35.89v15A2.8,2.8,0,0,1,5.78,53.72Z"/>
    <path class="cls-1" d="M84,116.92H54.77a2.8,2.8,0,0,1,0-5.6H84A15.56,15.56,0,0,0,99.54,95.78V43.46a2.8,2.8,0,1,1,5.6,0V95.78A21.16,21.16,0,0,1,84,116.92Z"/>
    <path class="cls-1" d="M110.71,14.19a8.41,8.41,0,0,1-5-5L102.35,0,99,9.19a8.41,8.41,0,0,1-5,5l-9.19,3.37L94,20.92a8.46,8.46,0,0,1,5,5l3.37,9.2,3.36-9.2a8.46,8.46,0,0,1,5-5l9.19-3.36Zm-3.59,3.37a12.94,12.94,0,0,0-4.77,4.78,13,13,0,0,0-4.79-4.78,12.92,12.92,0,0,0,4.78-4.79A13.15,13.15,0,0,0,107.12,17.56Z"/>
  </g>
</svg>
