<svg id="Layer_1" data-name="Layer 1" xmlns="http://www.w3.org/2000/svg" viewBox="0 0 108.87 108.87">
  <defs>
    <style>
      .cls-1 {
        fill: #5c0f8b;
      }
    </style>
  </defs>
  <g>
    <path class="cls-1" d="M54.44,0a54.44,54.44,0,1,0,54.43,54.44A54.44,54.44,0,0,0,54.44,0Zm0,101.87A47.21,47.21,0,0,1,24,90.8L90.78,24l-4.94-4.95L19,85.92a47.41,47.41,0,1,1,35.45,16Z"/>
    <polygon class="cls-1" points="33.21 33.52 33.17 33.61 33.14 33.56 33.21 33.52"/>
    <path class="cls-1" d="M57.57,42.75,52.21,39l8.42,13.35L49.45,59.4,36.92,39.54l-3.39,7.88,7,11.11-4.89,3.09L27,48l0,0,6.17-14.35,0-.09h0l1.67-1a9,9,0,0,0,7.92-5l1.52-1,0,.06.06-.09,11.71,8.21,8.4-12L69.28,26l-8.4,12h0Z"/>
    <polygon class="cls-1" points="73.51 43.1 73.33 43 73.44 42.95 73.51 43.1"/>
    <polygon class="cls-1" points="73.33 43 73.17 43.07 73.24 42.95 73.33 43"/>
    <polygon class="cls-1" points="91.2 53.31 87.47 59.77 72.86 51.33 59.24 57.26 71.59 64.39 71.55 64.46 71.55 88.74 32.77 88.74 32.77 87.62 64.09 87.62 64.09 68.66 52.2 61.8 55.92 55.34 57.62 56.32 55.25 50.86 73.17 43.07 73.33 43 73.51 43.1 91.2 53.31"/>
    <circle class="cls-1" cx="34.75" cy="23.46" r="7"/>
  </g>
</svg>
