<svg id="Layer_1" data-name="Layer 1" xmlns="http://www.w3.org/2000/svg" viewBox="0 0 192.29 128.44">
  <defs>
    <style>
      .cls-1 {
        fill: #5c0f8b;
      }
    </style>
  </defs>
  <g>
    <path class="cls-1" d="M83.33,20v6H43.53c-2.58,0-4.76,3.32-4.76,7.24V65.32a16.85,16.85,0,0,0-6-1.9V33.24C32.77,25.94,37.6,20,43.53,20Z"/>
    <path class="cls-1" d="M156.5,15.29V43h-6V15.29C150.5,10,148,6,145.75,6H99.08c-2.24,0-4.75,4-4.75,9.29V122.74a3,3,0,0,1-6,0V15.29C88.33,6.72,93.05,0,99.08,0h46.67C151.78,0,156.5,6.72,156.5,15.29Z"/>
    <path class="cls-1" d="M82.36,67.37V79.26h-7.1A2.24,2.24,0,0,1,73,77V69.59a2.23,2.23,0,0,1,2.24-2.22Z"/>
    <path class="cls-1" d="M82.36,49.52v11.9h-7.1A2.23,2.23,0,0,1,73,59.19V51.76a2.24,2.24,0,0,1,2.24-2.24Z"/>
    <path class="cls-1" d="M82.36,31.69V43.58h-7.1A2.23,2.23,0,0,1,73,41.35V33.92a2.23,2.23,0,0,1,2.24-2.23Z"/>
    <rect class="cls-1" x="49.24" y="49.52" width="11.9" height="11.9" rx="2.23"/>
    <path class="cls-1" d="M61.14,69.3v7.43A2.23,2.23,0,0,1,58.91,79H57.65a14.36,14.36,0,0,0-1.88-2.41,15.54,15.54,0,0,0-6.53-4.12V69.3a2.23,2.23,0,0,1,2.23-2.23h7.44A2.24,2.24,0,0,1,61.14,69.3Z"/>
    <rect class="cls-1" x="49.24" y="31.69" width="11.9" height="11.9" rx="2.23"/>
    <rect class="cls-1" x="104.69" y="102.74" width="11.9" height="11.9" rx="2.23"/>
    <rect class="cls-1" x="104.69" y="84.91" width="11.9" height="11.9" rx="2.23"/>
    <rect class="cls-1" x="104.69" y="67.07" width="11.9" height="11.9" rx="2.23"/>
    <rect class="cls-1" x="104.69" y="49.52" width="11.9" height="11.9" rx="2.23"/>
    <path class="cls-1" d="M140.37,33.92v7.43a2.23,2.23,0,0,1-.64,1.57h-5.31a18.06,18.06,0,0,0-4.44.54h0a2.75,2.75,0,0,1-.3-.14h0a1,1,0,0,1-.24-.15,1.48,1.48,0,0,1-.3-.26s0,0,0,0-.12-.13-.18-.21a1.58,1.58,0,0,1-.15-.24,2,2,0,0,1-.17-.4,2.29,2.29,0,0,1-.07-.28,1,1,0,0,0,0-.16,1.77,1.77,0,0,1,0-.23V33.92a2.23,2.23,0,0,1,2.23-2.23h7.43A2.23,2.23,0,0,1,140.37,33.92Z"/>
    <rect class="cls-1" x="104.69" y="31.69" width="11.9" height="11.9" rx="2.23"/>
    <path class="cls-1" d="M140.37,16.08v7.43a2.23,2.23,0,0,1-2.23,2.23h-7.43a2.24,2.24,0,0,1-2.24-2.23V16.08a2.24,2.24,0,0,1,2.24-2.23h7.43A2.23,2.23,0,0,1,140.37,16.08Z"/>
    <path class="cls-1" d="M116.59,16.08v7.43a2.24,2.24,0,0,1-2.24,2.23h-7.43a2.23,2.23,0,0,1-2.23-2.23V16.08a2.23,2.23,0,0,1,2.23-2.23h7.43A2.24,2.24,0,0,1,116.59,16.08Z"/>
    <path class="cls-1" d="M180.23,75.84v48a2.75,2.75,0,0,1-5.5,0v-48A1.82,1.82,0,0,0,172.89,74H161v49.76a2.75,2.75,0,0,1-2.76,2.75,2.72,2.72,0,0,1-2.53-1.72,2.56,2.56,0,0,1-.21-1V74H143.52a1.81,1.81,0,0,0-1.82,1.82v48a2.76,2.76,0,0,1-5.52,0v-48a7.31,7.31,0,0,1,7.34-7.25h29.37A7.29,7.29,0,0,1,180.23,75.84Z"/>
    <path class="cls-1" d="M58.91,93.09A14.57,14.57,0,0,0,55.55,90a10.64,10.64,0,0,0,.31-4.49A11.22,11.22,0,0,0,54.76,82a11.46,11.46,0,0,0-1.88-2.64A11.8,11.8,0,0,0,47,75.94l-.42-.09a10.78,10.78,0,0,0-2.11-.21,9.4,9.4,0,0,0-1.4.09,12.61,12.61,0,0,0-3.61-5.11,14,14,0,0,0-1.31-1,13.06,13.06,0,0,0-7.56-2.31q-.43,0-.87,0a13,13,0,0,0-8,3.3,12.61,12.61,0,0,0-3.61,5.11,10.81,10.81,0,0,0-1.39-.09,11,11,0,0,0-2.54.3,11.69,11.69,0,0,0-5.9,3.37,11,11,0,0,0-3,6.16,9.91,9.91,0,0,0,.29,4.3,12.7,12.7,0,0,0-3.34,3.32A12.45,12.45,0,0,0,0,100.25a12.32,12.32,0,0,0,3.9,9.17,13.06,13.06,0,0,0,9.35,3.73H27.72l0,12.42a2.86,2.86,0,0,0,2.86,2.87h0a2.85,2.85,0,0,0,2.67-1.86,2.89,2.89,0,0,0,.19-1V113.15H47.88a13,13,0,0,0,9.35-3.73,12.29,12.29,0,0,0,3.91-9.17A12.45,12.45,0,0,0,58.91,93.09ZM53.25,105.3a7.4,7.4,0,0,1-5.37,2.12H33.45v-.74l6.79-6.79a2.87,2.87,0,0,0-2-4.89h-.09a2.84,2.84,0,0,0-1.94.84l-2.73,2.73,0-13.13a2.88,2.88,0,0,0-.84-2,2.84,2.84,0,0,0-2-.83,2.78,2.78,0,0,0-.87.14,2.86,2.86,0,0,0-2,2.73v7.42L25,90.1a3.15,3.15,0,0,0-.95-.63,2.86,2.86,0,0,0-3.1.63,2.87,2.87,0,0,0,0,4.06L27.72,101v6.45H13.25a7.38,7.38,0,0,1-5.36-2.12,6.94,6.94,0,0,1-.94-9,7.12,7.12,0,0,1,3.35-2.62l3.16-1.24L11.7,89.57A4.77,4.77,0,0,1,11,86.29a5.34,5.34,0,0,1,1.46-3,6,6,0,0,1,3.07-1.74,5.05,5.05,0,0,1,1.23-.15,5.92,5.92,0,0,1,2.34.51l3.55,1.53L23,79.57a6.89,6.89,0,0,1,2.44-4.64,7.6,7.6,0,0,1,4.22-1.86,5.09,5.09,0,0,1,.87-.06,7.72,7.72,0,0,1,5.1,1.92,6.94,6.94,0,0,1,2.45,4.64v.12l.41,3.72,3.56-1.53.29-.12.59-.19.3-.07a3.85,3.85,0,0,1,.49-.08,2.77,2.77,0,0,1,.49,0h.17a4.88,4.88,0,0,1,.93.09l.31.06a6.07,6.07,0,0,1,3.07,1.74,5.41,5.41,0,0,1,1.46,3,5.27,5.27,0,0,1-.7,3.38l-1.36,2.44,2.42,1.42a15.2,15.2,0,0,1,3.62,2.81,6.9,6.9,0,0,1-.92,9Z"/>
    <path class="cls-1" d="M192.29,58.36v64.38a3,3,0,0,1-6,0V58.36A4.57,4.57,0,0,0,181.54,54H134.87a4.57,4.57,0,0,0-4.75,4.36v64.38a3,3,0,1,1-6,0V58.36A10.57,10.57,0,0,1,134.87,48h46.67A10.57,10.57,0,0,1,192.29,58.36Z"/>
  </g>
</svg>
