<svg id="Layer_1" data-name="Layer 1" xmlns="http://www.w3.org/2000/svg" viewBox="0 0 160.88 133">
  <defs>
    <style>
      .cls-1, .cls-3 {
        fill: #5c0f8b;
      }

      .cls-2 {
        fill: none;
      }

      .cls-2, .cls-3 {
        stroke: #5c0f8b;
        stroke-miterlimit: 10;
        stroke-width: 6px;
      }

      .cls-3 {
        stroke-linecap: round;
      }
    </style>
  </defs>
  <g>
    <path class="cls-1" d="M66.06,54.93v6H3.55c-2.48,0-3.55-1.33-3.55-3H0c0-1.65,1.07-3,3.55-3Z"/>
    <path class="cls-1" d="M94.82,54.93v6h62.5c2.49,0,3.56-1.33,3.56-3h0c0-1.65-1.07-3-3.56-3Z"/>
    <path class="cls-2" d="M109.59,76.5,80.44,127,51.28,76.5H74.21V9.22a6.23,6.23,0,0,1,12.45,0V76.5Z"/>
    <line class="cls-3" x1="155.41" y1="70.46" x2="155.41" y2="101.82"/>
    <line class="cls-3" x1="121.78" y1="70.46" x2="121.78" y2="101.82"/>
    <line class="cls-3" x1="138.59" y1="70.46" x2="138.59" y2="117.78"/>
    <line class="cls-3" x1="5.47" y1="70.46" x2="5.47" y2="101.82"/>
    <line class="cls-3" x1="39.1" y1="70.46" x2="39.1" y2="101.82"/>
    <line class="cls-3" x1="22.28" y1="70.46" x2="22.28" y2="117.78"/>
  </g>
</svg>
