<svg id="Layer_1" data-name="Layer 1" xmlns="http://www.w3.org/2000/svg" viewBox="0 0 126.64 166.07">
  <defs>
    <style>
      .cls-1 {
        fill: #5c0f8b;
      }
    </style>
  </defs>
  <g>
    <path class="cls-1" d="M63.16,54.79a1,1,0,0,1,.67.26L87.27,75.56l10,8.71V61.8h9V92.19l2,1.79L120,104.17a1,1,0,0,1,.34.76,1,1,0,0,1-1,1h-13v9.57c-.25.17-.5.34-.74.52L95.1,123.72a19.1,19.1,0,0,0-11.91-10.88V95.58A10.7,10.7,0,0,0,72.5,84.89H53.81A10.71,10.71,0,0,0,43.12,95.58V112h-.69A38,38,0,0,0,20,119.31V105.94H7a1,1,0,0,1-.67-1.78L62.48,55.05a1,1,0,0,1,.68-.26m0-6a7,7,0,0,0-4.63,1.74L2.4,99.64A7,7,0,0,0,7,111.94h7v19.91l8.36-6.79a32,32,0,0,1,20-7.09H51a4.67,4.67,0,0,1-1.83-3.7V95.58a4.69,4.69,0,0,1,4.69-4.69H72.5a4.69,4.69,0,0,1,4.69,4.69v18.69a4.61,4.61,0,0,1-1.82,3.7h2.15a13,13,0,0,1,12.85,15.18,14.11,14.11,0,0,1-.45,1.84l19.17-14.13a14.76,14.76,0,0,1,3.18-1.8v-7.12h7a7,7,0,0,0,4.62-12.3L112.27,89.46V59.31a3.51,3.51,0,0,0-3.51-3.51h-14a3.51,3.51,0,0,0-3.51,3.51V71L67.78,50.53a7,7,0,0,0-4.62-1.74Z"/>
    <path class="cls-1" d="M117.86,130a2.76,2.76,0,0,1,2.24,1.13,2.8,2.8,0,0,1,.51,2.06,2.72,2.72,0,0,1-1.1,1.81L89.9,156.79a17,17,0,0,1-10,3.28H6.33V144H18.11l1.66-1.35L30,134.39A19.88,19.88,0,0,1,42.43,130H77.52a1,1,0,0,1,1,1.21c-.06.38-.69.83-1.4.83H60a9.51,9.51,0,0,0,0,19H88.39L90,149.85l26.26-19.34a2.67,2.67,0,0,1,1.62-.54m0-6a8.69,8.69,0,0,0-5.19,1.72L86.42,145H60a3.51,3.51,0,0,1,0-7H77.13a7.3,7.3,0,0,0,7.32-5.84,7,7,0,0,0-6.93-8.2H42.43a25.8,25.8,0,0,0-16.25,5.76L16,138H3.84a3.53,3.53,0,0,0-3.51,3.5v21.05a3.53,3.53,0,0,0,3.51,3.51H79.93a23,23,0,0,0,13.53-4.45l29.61-21.82A8.77,8.77,0,0,0,117.86,124Z"/>
    <path class="cls-1" d="M120.64,6V22.06H108.86l-1.65,1.34L97,31.68a19.88,19.88,0,0,1-12.48,4.41H49.46a1,1,0,0,1-1-1.2,1.43,1.43,0,0,1,1.4-.83H67a9.51,9.51,0,1,0,0-19H38.58L37,16.22,10.74,35.56a2.71,2.71,0,0,1-1.63.54A2.75,2.75,0,0,1,6.87,35a2.71,2.71,0,0,1-.5-2.05A2.74,2.74,0,0,1,7.46,31.1L37.07,9.28A16.94,16.94,0,0,1,47.05,6h73.59m2.49-6H47.05A23,23,0,0,0,33.52,4.45L3.9,26.27A8.77,8.77,0,1,0,14.31,40.38L40.55,21.05H67a3.51,3.51,0,1,1,0,7H49.84a7.31,7.31,0,0,0-7.32,5.84,7,7,0,0,0,6.94,8.19H84.54a25.77,25.77,0,0,0,16.25-5.75L111,28.06h12.14a3.53,3.53,0,0,0,3.51-3.51v-21A3.53,3.53,0,0,0,123.13,0Z"/>
  </g>
</svg>
