<svg id="Layer_1" data-name="Layer 1" xmlns="http://www.w3.org/2000/svg" viewBox="0 0 170.09 125.36">
  <defs>
    <style>
      .cls-1 {
        fill: #5c0f8b;
      }
    </style>
  </defs>
  <g>
    <path class="cls-1" d="M99.27,73.21V83a3,3,0,0,1-2.94,3H86.5a3,3,0,0,1-2.94-3V73.21a3,3,0,0,1,2.94-2.95h9.83A3,3,0,0,1,99.27,73.21Z"/>
    <path class="cls-1" d="M99.27,49.64v9.82a2.94,2.94,0,0,1-2.94,2.94H86.5a2.94,2.94,0,0,1-2.94-2.94V49.64a3,3,0,0,1,2.94-3h9.83A3,3,0,0,1,99.27,49.64Z"/>
    <rect class="cls-1" x="83.56" y="23.12" width="15.71" height="15.71" rx="2.94"/>
    <rect class="cls-1" x="52.13" y="23.12" width="15.71" height="15.71" rx="2.94"/>
    <path class="cls-1" d="M67.84,49.64v9.82A2.94,2.94,0,0,1,64.9,62.4H55.07a2.94,2.94,0,0,1-2.94-2.94V49.64a3,3,0,0,1,2.94-3H64.9A3,3,0,0,1,67.84,49.64Z"/>
    <path class="cls-1" d="M67.84,73.21V83a3,3,0,0,1-2.94,3H55.07a3,3,0,0,1-2.94-3V73.21a3,3,0,0,1,2.94-2.95H64.9A3,3,0,0,1,67.84,73.21Z"/>
    <path class="cls-1" d="M154.89,88.05v6.78a2,2,0,0,1-2,2h-6.79a2,2,0,0,1-2-2V88.05a2,2,0,0,1,2-2h6.79A2,2,0,0,1,154.89,88.05Z"/>
    <rect class="cls-1" x="144.04" y="69.74" width="10.85" height="10.85" rx="2.03"/>
    <rect class="cls-1" x="144.04" y="53.46" width="10.85" height="10.85" rx="2.03"/>
    <path class="cls-1" d="M133.18,55.49v6.79a2,2,0,0,1-2,2h-6.78a3,3,0,0,1-.42,0V53.5a3,3,0,0,1,.42,0h6.78A2,2,0,0,1,133.18,55.49Z"/>
    <path class="cls-1" d="M133.18,71.77v6.78a2,2,0,0,1-2,2h-6.78a3,3,0,0,1-.42,0V69.78a3,3,0,0,1,.42,0h6.78A2,2,0,0,1,133.18,71.77Z"/>
    <path class="cls-1" d="M133.18,88.05v6.78a2,2,0,0,1-2,2h-6.78a3,3,0,0,1-.42,0V86.05a3,3,0,0,1,.42,0h6.78A2,2,0,0,1,133.18,88.05Z"/>
    <path class="cls-1" d="M170.09,47.2v74a3,3,0,0,1-6,0v-74a4.64,4.64,0,0,0-4.63-4.63H124v-6h35.51A10.64,10.64,0,0,1,170.09,47.2Z"/>
    <path class="cls-1" d="M120,14.06v107.1a3,3,0,0,1-6,0V14.06A8.06,8.06,0,0,0,105.89,6H45.51a8.07,8.07,0,0,0-8.06,8.06V70.75l-5.6-8.09-.4-.58v-48A14.07,14.07,0,0,1,45.51,0h60.38A14.07,14.07,0,0,1,120,14.06Z"/>
    <path class="cls-1" d="M22.3,66.45l.22.31,1.11,1.6,2.89,4.16L29.63,77H23.7l5.92,9.24L32.4,90.6l1.47,2.3h-8l6,9.27.54.84,2.9,4.43,1.1,1.7,1.15,1.75H7.05l5.68-8.71,6.06-9.28h-8L15,86.26,20.92,77H15L22.3,66.45m0-8.88a2.4,2.4,0,0,0-1.93,1.12L7,78.08C5.61,80,6.76,83,8.88,83H10l-6,9.38C2.3,95,3.67,98.9,6.2,98.9H7.71L.84,109.43c-1.89,2.9-.38,7.46,2.46,7.46H19.12v4.24c0,2.34,1.43,4.23,3.19,4.23a2.85,2.85,0,0,0,2.3-1.31,5,5,0,0,0,.88-2.92v-4.24H41.21a1,1,0,0,0,.24,0c2.76-.24,4.18-4.6,2.33-7.44l-2.33-3.57-1.11-1.7-2.89-4.43-.54-.83h1.51A2.49,2.49,0,0,0,40.34,98a4.88,4.88,0,0,0,.34-5.56l-.34-.53-2.89-4.51L34.67,83h1.07a2.22,2.22,0,0,0,1.71-.81,3.45,3.45,0,0,0,.21-4.13l-.21-.3-6-8.67-2.89-4.17-1.11-1.6-3.22-4.65a2.76,2.76,0,0,0-.67-.69,2.08,2.08,0,0,0-1.25-.43Z"/>
  </g>
</svg>
