<svg id="Layer_1" data-name="Layer 1" xmlns="http://www.w3.org/2000/svg" viewBox="0 0 150.52 107.87">
  <defs>
    <style>
      .cls-1 {
        fill: #5c0f8b;
      }
    </style>
  </defs>
  <g>
    <g>
      <path class="cls-1" d="M109.22,48.86a1.81,1.81,0,0,0-1.12-.48l-21.94-.32c-.76,0-1.38-.06-1.38,2.59V55.3a1.39,1.39,0,0,0,1.39,1.39H108.1a1.39,1.39,0,0,0,1.39-1.39V50.64C109.49,50.26,109.47,49.11,109.22,48.86ZM83.66,57.8a3.56,3.56,0,0,1-1-2.5V50.65a3.54,3.54,0,0,1,3.54-3.54H108.1a3.55,3.55,0,0,1,3.54,3.54v4.65a3.54,3.54,0,0,1-3.53,3.54H86.17A3.54,3.54,0,0,1,83.66,57.8Z"/>
      <path class="cls-1" d="M86.17,59.42a4.14,4.14,0,0,1-2.92-1.2h0A4.15,4.15,0,0,1,82,55.3V50.65a4.13,4.13,0,0,1,4.12-4.13H108.1a4.12,4.12,0,0,1,4.12,4.12v4.65a4.11,4.11,0,0,1-4.12,4.12ZM84.66,48.1a3.18,3.18,0,0,0-.59.45,3,3,0,0,0-.87,2.1V55.3a3,3,0,0,0,.87,2.09h0a3,3,0,0,0,2.1.87H108.1a3,3,0,0,0,2.1-.87,2.93,2.93,0,0,0,.86-2.09V50.64a3,3,0,0,0-3-3h-8l8,.12a2.39,2.39,0,0,1,1.52.65c.14.14.44.44.44,2.19v4.65a2,2,0,0,1-2,2H86.17a2,2,0,0,1-2-2V50.65A4.77,4.77,0,0,1,84.66,48.1Zm1.47.54c-.29,0-.42,0-.47.06s-.3.46-.3,1.95V55.3a.8.8,0,0,0,.81.8H108.1a.81.81,0,0,0,.81-.81V50.64a5.09,5.09,0,0,0-.13-1.39,1.2,1.2,0,0,0-.68-.29l-21.94-.32Z"/>
    </g>
    <g>
      <path class="cls-1" d="M98.61,73.58a1.07,1.07,0,0,1-.32-.76V66.34a1.08,1.08,0,0,1,.72-1l15.54-5.48v-6h-2.62a1.08,1.08,0,1,1,0-2.15h3.7a1.08,1.08,0,0,1,.76.31h0a1.08,1.08,0,0,1,.31.76v7.86a1.08,1.08,0,0,1-.72,1L100.44,67.1v5.72a1.1,1.1,0,0,1-1.08,1.08A1.08,1.08,0,0,1,98.61,73.58Z"/>
      <path class="cls-1" d="M99.37,74.48A1.66,1.66,0,0,1,98.2,74h0a1.65,1.65,0,0,1-.48-1.17V66.34a1.67,1.67,0,0,1,1.11-1.57L114,59.43v-5h-2a1.65,1.65,0,0,1-1.17-.48,1.62,1.62,0,0,1-.49-1.17,1.66,1.66,0,0,1,1.66-1.66h3.7a1.62,1.62,0,0,1,1.17.49,1.64,1.64,0,0,1,.49,1.16v7.86a1.67,1.67,0,0,1-1.11,1.56L101,67.51v5.31A1.68,1.68,0,0,1,99.37,74.48ZM99,73.17a.51.51,0,0,0,.84-.35V66.69l15.93-5.61a.5.5,0,0,0,.33-.47V52.75a.48.48,0,0,0-.14-.34.49.49,0,0,0-.35-.15h-3.7a.5.5,0,0,0-.5.5.49.49,0,0,0,.15.35.5.5,0,0,0,.35.14h3.2v7L99.2,65.87a.5.5,0,0,0-.33.47v6.48A.49.49,0,0,0,99,73.17Z"/>
    </g>
    <g>
      <path class="cls-1" d="M95.69,89a1.07,1.07,0,0,1-.32-.76V73.84a1.08,1.08,0,0,1,1.08-1.08h6a1.07,1.07,0,0,1,1.08,1.07V86.38a1.08,1.08,0,1,1-2.15,0V74.91H97.52V88.2a1.08,1.08,0,0,1-1.84.76Z"/>
      <path class="cls-1" d="M96.45,89.85a1.65,1.65,0,0,1-1.17-.48h0a1.62,1.62,0,0,1-.49-1.17V73.84a1.66,1.66,0,0,1,1.66-1.66h6a1.65,1.65,0,0,1,1.65,1.65V86.38a1.66,1.66,0,0,1-3.32,0V75.49H98.11V88.2A1.66,1.66,0,0,1,96.45,89.85Zm-.36-1.3A.52.52,0,0,0,97,88.2V74.33h5v12a.5.5,0,1,0,1,0V73.83a.49.49,0,0,0-.49-.49h-6a.5.5,0,0,0-.5.5V88.2A.52.52,0,0,0,96.09,88.55Z"/>
    </g>
    <path class="cls-1" d="M111.8,19.51v25.1a5.41,5.41,0,0,1-3.27-1,3.09,3.09,0,0,0-3.26,0,5.82,5.82,0,0,1-6.54,0,3.09,3.09,0,0,0-3.26,0,5.82,5.82,0,0,1-6.54,0,3.09,3.09,0,0,0-3.26,0,5.43,5.43,0,0,1-3.27,1V19.51A2.74,2.74,0,0,0,84,19a5.82,5.82,0,0,1,6.54,0,3.09,3.09,0,0,0,3.26,0,5.82,5.82,0,0,1,6.54,0,3.09,3.09,0,0,0,3.26,0,5.82,5.82,0,0,1,6.54,0A2.74,2.74,0,0,0,111.8,19.51Z"/>
    <path class="cls-1" d="M96.59,0a53.85,53.85,0,0,0-43,21.37,27.1,27.1,0,0,0-6-3.53A39.17,39.17,0,0,0,31.9,14.9a55,55,0,0,0-17.08,2.69A38.93,38.93,0,0,0,1.26,24.78L7.38,38.66A47.49,47.49,0,0,1,19,32.34a33.76,33.76,0,0,1,11.51-2.18q6.14,0,9.38,2.87c2.17,1.93,3.25,4.67,3.25,8.26s-1.23,6.38-3.69,8.13-6.23,2.63-11.31,2.63H17.64V67.18H30.27q8,0,11.63,2.63t3.63,8.5q0,6-3.63,8.83T30.27,90Q18.13,90,6.13,81.44L0,95.33a37.29,37.29,0,0,0,13.63,7.25,58.3,58.3,0,0,0,17.52,2.62q15.12,0,24-6.69a22.46,22.46,0,0,0,4.89-5A53.92,53.92,0,1,0,96.59,0Zm0,100.28a46.45,46.45,0,0,1-46-40.55c-.08-.66-.15-1.32-.21-2-.1-1.25-.15-2.52-.15-3.8a46.35,46.35,0,1,1,46.35,46.35Z"/>
  </g>
</svg>
