<svg id="Layer_1" data-name="Layer 1" xmlns="http://www.w3.org/2000/svg" viewBox="0 0 148.42 107.87">
  <defs>
    <style>
      .cls-1 {
        fill: #5c0f8b;
      }

      .cls-2 {
        fill: #fff;
        stroke: #5c0f8b;
        stroke-miterlimit: 10;
        stroke-width: 4px;
      }
    </style>
  </defs>
  <g>
    <g>
      <path class="cls-1" d="M78.33,35.69V76.81L115,87.09V25.41ZM80,37.12l15.84-4v10L80,45.41Zm24.65,7.24V55l-15.78.2V46.24ZM80,47.3l7.22-.86v8.77L80,55.3Zm0,9.9,15.84.2v9.69L80,65.2Zm0,9.9,7.22,1v9.08L80,75.38Zm24.65,14.57-15.78-4V68.38l15.78,2.28Zm8.68,2.22-7-1.79V70.9l7,1Zm0-14.71L97.47,67.29V57.42l15.84.2Zm0-14.3-7,.09V44.16l7-.84Zm0-14.3L97.47,42.87V32.66l15.84-4Z"/>
      <path class="cls-2" d="M100.19,74.64,70.41,67.86V27.67l29.78-6.77Z"/>
    </g>
    <path class="cls-1" d="M94.49,0A53.84,53.84,0,0,0,51.76,21.08Q43.68,14.9,30.39,14.9a53.94,53.94,0,0,0-16.88,2.69A39.13,39.13,0,0,0,0,24.78L6.13,38.66a49.68,49.68,0,0,1,11.75-6.32,33.76,33.76,0,0,1,11.51-2.18q12,0,12,10.51,0,8.25-9.26,18L2.75,89.82v14.39H75A53.93,53.93,0,1,0,94.49,0ZM27,88.57,43.43,71.31a53.92,53.92,0,0,0,9.76,17.26Zm67.47,11.71a46.35,46.35,0,1,1,46.35-46.35A46.42,46.42,0,0,1,94.49,100.28Z"/>
  </g>
</svg>
