<svg id="Layer_1" data-name="Layer 1" xmlns="http://www.w3.org/2000/svg" viewBox="0 0 139.87 132.09">
  <defs>
    <style>
      .cls-1 {
        fill: #5c0f8b;
      }
    </style>
  </defs>
  <g>
    <path class="cls-1" d="M92.34,38.81,69.94,77.62,47.53,38.81H65.16v-34A4.78,4.78,0,0,1,69.94,0h0a4.78,4.78,0,0,1,4.78,4.78v34Z"/>
    <path class="cls-1" d="M139.84,70.54a22.07,22.07,0,0,1-2.14,10.74,22.4,22.4,0,0,1-4.23,6,22.05,22.05,0,0,1-15.72,6.57H36.28a3,3,0,0,1-3-3h0a3,3,0,0,1,3-3h81.47a16.12,16.12,0,0,0,16.06-17.51,16.4,16.4,0,0,0-16.49-14.74h-7.73a3,3,0,0,1-3-3h0a3,3,0,0,1,3-3h7.64C129.09,49.59,139.22,58.7,139.84,70.54Z"/>
    <path class="cls-1" d="M106.59,110h0a3,3,0,0,1-3,3h-81c-11.85,0-22-9.12-22.6-21a22.17,22.17,0,0,1,22.1-23.3h8.15a3,3,0,0,1,3,3h0a3,3,0,0,1-3,3H22.13a16.12,16.12,0,0,0-13,6.56,16.21,16.21,0,0,0-3.1,10.87A16.41,16.41,0,0,0,22.55,107h81A3,3,0,0,1,106.59,110Z"/>
    <rect class="cls-1" x="3" y="126.09" width="133.87" height="6" rx="3"/>
  </g>
</svg>
