<svg id="Layer_1" data-name="Layer 1" xmlns="http://www.w3.org/2000/svg" viewBox="0 0 155.36 152.38">
  <defs>
    <style>
      .cls-1 {
        fill: #5c0f8b;
      }
    </style>
  </defs>
  <g>
    <path class="cls-1" d="M32.74,65.47A32.74,32.74,0,1,1,65.47,32.74,32.77,32.77,0,0,1,32.74,65.47ZM32.74,6A26.74,26.74,0,1,0,59.47,32.74,26.76,26.76,0,0,0,32.74,6Z"/>
    <path class="cls-1" d="M44.74,44v6.17H22.06V44h7.5V23.89l-5.92,3.45-2.91-5.52,11.05-6.46h5.47V44Z"/>
    <path class="cls-1" d="M122.63,104a32.74,32.74,0,1,1,32.73-32.74A32.78,32.78,0,0,1,122.63,104Zm0-59.48a26.74,26.74,0,1,0,26.73,26.74A26.77,26.77,0,0,0,122.63,44.52Z"/>
    <path class="cls-1" d="M135.13,82.7v6.16H111.21V83.19L122.8,70.91q3.65-3.84,3.65-7.1,0-4.14-4.74-4.14a13.35,13.35,0,0,0-4.53.86A19.79,19.79,0,0,0,112.54,63l-2.41-5.47a15.33,15.33,0,0,1,5.32-2.83,21.28,21.28,0,0,1,6.66-1.06c3.61,0,6.5.87,8.65,2.61a8.53,8.53,0,0,1,3.23,7,12.44,12.44,0,0,1-1.26,5.57,24.34,24.34,0,0,1-4.21,5.72l-7.74,8.14Z"/>
    <path class="cls-1" d="M43.65,152.38a32.74,32.74,0,1,1,32.74-32.73A32.76,32.76,0,0,1,43.65,152.38Zm0-59.47a26.74,26.74,0,1,0,26.74,26.74A26.77,26.77,0,0,0,43.65,92.91Z"/>
    <path class="cls-1" d="M54.62,122.24a8.63,8.63,0,0,1,1.65,5.35,8.54,8.54,0,0,1-3.5,7.22q-3.5,2.64-9.46,2.64a23,23,0,0,1-6.91-1A14.57,14.57,0,0,1,31,133.55l2.42-5.47A16.37,16.37,0,0,0,43,131.43a7.56,7.56,0,0,0,4.59-1.11A4.13,4.13,0,0,0,49,126.85a3.87,3.87,0,0,0-1.43-3.36,8,8,0,0,0-4.59-1H38v-6h4.14a7.77,7.77,0,0,0,4.47-1A3.69,3.69,0,0,0,48,112.25,4.12,4.12,0,0,0,46.76,109a5.41,5.41,0,0,0-3.7-1.14,13.15,13.15,0,0,0-4.54.87,18.21,18.21,0,0,0-4.58,2.49l-2.42-5.48a15.56,15.56,0,0,1,5.35-2.83,21.67,21.67,0,0,1,6.73-1.06A15.38,15.38,0,0,1,49.82,103a9.33,9.33,0,0,1,4.11,3.28,8.48,8.48,0,0,1,1.46,4.93,8.36,8.36,0,0,1-1.46,4.9,8.1,8.1,0,0,1-4,3A8.73,8.73,0,0,1,54.62,122.24Z"/>
    <g>
      <path class="cls-1" d="M92.3,128.74l-2.52-5.44a51.46,51.46,0,0,0,21.43-18.49l5,3.29A57.44,57.44,0,0,1,92.3,128.74Z"/>
      <path class="cls-1" d="M80.76,129.57c4.17-3.52,9-8.71,11.58-13.27v9.1l5.81,7C93.28,130.52,86.22,129.62,80.76,129.57Z"/>
    </g>
    <g>
      <path class="cls-1" d="M96.62,33.79a51.1,51.1,0,0,0-28.39-8.55v-6a57.12,57.12,0,0,1,31.71,9.55Z"/>
      <path class="cls-1" d="M106.69,38.17c-5.18-1.7-12.16-3.12-17.37-2.89l7.76-4.77L100,21.89C100.93,27,103.87,33.5,106.69,38.17Z"/>
    </g>
  </g>
</svg>
