<svg id="Layer_1" data-name="Layer 1" xmlns="http://www.w3.org/2000/svg" viewBox="0 0 47.02 47.03"><defs><style>.cls-1{fill:#fff;}</style></defs><path class="cls-1" d="M23.51,47A23.52,23.52,0,1,1,47,23.51,23.54,23.54,0,0,1,23.51,47Zm0-45.15A21.64,21.64,0,1,0,45.15,23.51,21.65,21.65,0,0,0,23.51,1.88Z"/><rect class="cls-1" x="8.45" y="34.89" width="15.12" height="2.07"/><rect class="cls-1" x="24.72" y="33.38" width="15.38" height="2.07" transform="translate(-5.79 6.56) rotate(-10.62)"/><path class="cls-1" d="M22.71,33.83a3.38,3.38,0,0,1-1.42-.32,3.26,3.26,0,0,1-1.67-1.88l-3.17-7.39-4.13,1.52a3.62,3.62,0,0,1-3.55-.37c-.73-.57-1.56-1.73-1.32-4.05C7.81,17.81,12.21,9.1,17.5,9.1a4.1,4.1,0,0,1,3.78,2.5l.07.25c0,.22.93,5.44,7.18,8A2.74,2.74,0,0,1,30,23.45,2.74,2.74,0,0,1,26.48,25a19.67,19.67,0,0,1-3.35-1.55l2.68,6.06a3.28,3.28,0,0,1-2,4.18A3.41,3.41,0,0,1,22.71,33.83Zm-5.13-12.2,4,9.26a1.29,1.29,0,0,0,.65.75,1.18,1.18,0,0,0,.92.06,1.22,1.22,0,0,0,.7-.62,1.25,1.25,0,0,0,.06-.89L19.22,19.67A1.24,1.24,0,0,0,18.6,19a1.2,1.2,0,0,0-.93-.05l-4.14,1.52a1,1,0,0,1-1.33-.62,1,1,0,0,1,.62-1.32L17,17a3.29,3.29,0,0,1,2.52.14A3.23,3.23,0,0,1,21.15,19l.38.85A18.79,18.79,0,0,0,27.15,23l.08,0a.65.65,0,0,0,.51,0,.69.69,0,0,0,.37-.36.67.67,0,0,0-.37-.88,13.49,13.49,0,0,1-8.41-9.47,2,2,0,0,0-1.83-1.15c-3.78,0-7.7,7.54-8,10.38a2.42,2.42,0,0,0,.54,2.2,1.59,1.59,0,0,0,1.55.07C13.5,23.11,16.67,22,16.67,22Z"/><path class="cls-1" d="M18.23,18.77a1,1,0,0,1-.83-.42,12.9,12.9,0,0,1-1.63-2.77,1,1,0,1,1,1.9-.81,11,11,0,0,0,1.39,2.35,1,1,0,0,1-.21,1.45A1.09,1.09,0,0,1,18.23,18.77Z"/><path class="cls-1" d="M10.54,33.89a3.28,3.28,0,0,1-1-6.4l3-1-.59-.7a1,1,0,1,1,1.57-1.34l2.61,3.06-6,1.91a1.21,1.21,0,1,0,.73,2.3l8.33-2.82a1,1,0,0,1,.66,2l-8.34,2.83A3.6,3.6,0,0,1,10.54,33.89Z"/><path class="cls-1" d="M25.06,12.63a4.15,4.15,0,1,1,4.15-4.15A4.15,4.15,0,0,1,25.06,12.63Zm0-6.23a2.09,2.09,0,1,0,2.08,2.08A2.08,2.08,0,0,0,25.06,6.4Z"/><rect class="cls-1" x="7.55" y="38.14" width="32.05" height="2.07"/></svg>