<svg id="Layer_1" data-name="Layer 1" xmlns="http://www.w3.org/2000/svg" viewBox="0 0 47.03 47.03"><defs><style>.cls-1{fill:#76bc21;}.cls-2,.cls-3{fill:none;stroke:#76bc21;stroke-miterlimit:10;}.cls-2{stroke-width:1.51px;}.cls-3{stroke-width:1.62px;}</style></defs><path class="cls-1" d="M23.51,47A23.52,23.52,0,1,1,47,23.51,23.54,23.54,0,0,1,23.51,47Zm0-45.15A21.64,21.64,0,1,0,45.15,23.51,21.65,21.65,0,0,0,23.51,1.88Z"/><path class="cls-2" d="M9,19.39l10.1-5.76a1.22,1.22,0,0,1,1.64.45h0a1.22,1.22,0,0,1-.45,1.64L10.2,21.47"/><path class="cls-2" d="M.84,23.2l6.78-3.78a2,2,0,0,1,2.65.72h0a2,2,0,0,1-.73,2.65L1.18,27.66"/><path class="cls-3" d="M14,18.94l2.78,4.89a1.07,1.07,0,0,0,1.77.12l10-12.81a1.49,1.49,0,0,0-1.37-2.4l-16.13,2.1a1.07,1.07,0,0,0-.79,1.6l2.82,4.94"/><path class="cls-1" d="M20.39,35.35a2.42,2.42,0,0,1-1.52-1l-1.73-2.61a2.39,2.39,0,0,1,.66-3.31l12.31-8.18a2.38,2.38,0,0,1,3.3.67l1.74,2.61a2.39,2.39,0,0,1-.67,3.3L22.18,35A2.4,2.4,0,0,1,20.39,35.35Zm11.22-14a1,1,0,0,0-.7.14l-12.3,8.18a.92.92,0,0,0-.26,1.29l1.73,2.61a.94.94,0,0,0,1.3.26l12.3-8.18a.93.93,0,0,0,.26-1.29L32.2,21.71A1,1,0,0,0,31.61,21.31Z"/><path class="cls-1" d="M33.44,38.39a.73.73,0,0,1-.46-.31l-2.41-3.63a.74.74,0,0,1,0-.84l6.68-8.87L35.51,22.1l-1.47,1a.73.73,0,1,1-.8-1.21l2.07-1.37a.7.7,0,0,1,.54-.11h0a.76.76,0,0,1,.47.31l2.44,3.68a.74.74,0,0,1,0,.84l-6.68,8.86,2.13,3.21a.73.73,0,0,1-.75,1.11Z"/><path class="cls-1" d="M34.6,43.17a.69.69,0,0,1-.46-.31L32,39.58a.72.72,0,0,1,.2-1L35,36.71a.72.72,0,0,1,1,.2L38,40a.73.73,0,0,1-1.21.8l-1.63-2.46-1.6,1.06,1.78,2.68a.74.74,0,0,1-.2,1A.72.72,0,0,1,34.6,43.17Z"/></svg>