<svg id="Layer_1" data-name="Layer 1" xmlns="http://www.w3.org/2000/svg" viewBox="0 0 47.03 47.03"><defs><style>.cls-1{fill:#76bc21;}</style></defs><path class="cls-1" d="M23.51,47A23.52,23.52,0,1,1,47,23.51,23.54,23.54,0,0,1,23.51,47Zm0-45.15A21.64,21.64,0,1,0,45.15,23.51,21.65,21.65,0,0,0,23.51,1.88Z"/><path class="cls-1" d="M18.13,46.05,17,44.54a15.5,15.5,0,0,1,16.23-1.33l-.84,1.67A13.84,13.84,0,0,0,18.13,46.05Z"/><path class="cls-1" d="M14,45,12.7,43.64a19.18,19.18,0,0,1,24.05-2.45l-1,1.56A17.31,17.31,0,0,0,14,45Z"/><path class="cls-1" d="M11.54,42.48l-1.33-1.33A22.78,22.78,0,0,1,39.71,39l-1.12,1.51A20.87,20.87,0,0,0,11.54,42.48Z"/><path class="cls-1" d="M9.08,40,7.76,38.7a26.15,26.15,0,0,1,34.38-2.24L41,37.94A24.28,24.28,0,0,0,9.08,40Z"/><path class="cls-1" d="M36.66,18.42a2.59,2.59,0,0,1-1.83-.75l-4-4-.91.92a2.68,2.68,0,0,1-3.72.07h0a2.52,2.52,0,0,1-.72-1.89,2.71,2.71,0,0,1,.79-1.83l1.41-1.42a4.48,4.48,0,0,1,6.31,0L38.48,14a2.58,2.58,0,0,1-1.82,4.4Zm-5.84-6.77a1,1,0,0,1,.72.29l4.51,4.51a.85.85,0,0,0,1.21,0,.86.86,0,0,0,0-1.22l-4.5-4.5a2.81,2.81,0,0,0-3.87,0l-1.42,1.42a1,1,0,0,0-.28.67.77.77,0,0,0,.22.61h0a1,1,0,0,0,1.28-.07L30.11,12A1,1,0,0,1,30.82,11.65Z"/><path class="cls-1" d="M28,32.56a8.65,8.65,0,0,1,2.12-8.8l1.61-1.62L33,23.47l-1.61,1.62A6.74,6.74,0,0,0,29.77,32Z"/><path class="cls-1" d="M32.54,33.53a5.23,5.23,0,0,1,0-7.39l1.33,1.32a3.35,3.35,0,0,0,0,4.74Z"/><path class="cls-1" d="M24.33,32.36A12.13,12.13,0,0,1,27.64,21.3l1.6-1.61L30.57,21,29,22.62A10.26,10.26,0,0,0,26.17,32Z"/><path class="cls-1" d="M20.85,32.67a15.69,15.69,0,0,1,4.33-13.83l1.6-1.6,1.33,1.33-1.6,1.6A13.77,13.77,0,0,0,22.7,32.34Z"/><path class="cls-1" d="M17.45,33.55A19.15,19.15,0,0,1,22.7,16.36l1.62-1.61,1.33,1.33L24,17.69a17.23,17.23,0,0,0-4.73,15.5Z"/><path class="cls-1" d="M14.17,35a22.57,22.57,0,0,1,6-21.16l1.61-1.6,1.32,1.33-1.6,1.6A20.67,20.67,0,0,0,16,34.6Z"/><path class="cls-1" d="M11,36.77a26.23,26.23,0,0,1,6.73-25.35l1.33,1.33a24.31,24.31,0,0,0-6.24,23.52Z"/><path class="cls-1" d="M3.9,34.92,2.58,33.6a8.66,8.66,0,0,1,8.64-2.18l-.54,1.8A6.82,6.82,0,0,0,3.9,34.92Z"/><path class="cls-1" d="M11.13,37.36a3.35,3.35,0,0,0-4.73,0L5.07,36a5.25,5.25,0,0,1,7.39,0Z"/><path class="cls-1" d="M2.63,31.44,1.51,29.93a12.17,12.17,0,0,1,9.94-2.05L11,29.71A10.28,10.28,0,0,0,2.63,31.44Z"/><path class="cls-1" d="M1.66,27.92l-1-1.61a15.61,15.61,0,0,1,11-1.92l-.36,1.84A13.68,13.68,0,0,0,1.66,27.92Z"/><path class="cls-1" d="M1.25,24.16.44,22.47A19.25,19.25,0,0,1,12.36,21L12,22.79A17.44,17.44,0,0,0,1.25,24.16Z"/><path class="cls-1" d="M1.58,20.21.94,18.45A22.62,22.62,0,0,1,14,17.71l-.44,1.82A20.81,20.81,0,0,0,1.58,20.21Z"/><path class="cls-1" d="M15.16,16.36a24.33,24.33,0,0,0-12.45-.12l-.46-1.82a26.27,26.27,0,0,1,13.41.13Z"/><polygon class="cls-1" points="33.35 28 17.28 11.93 25.59 3.61 30.5 8.52 29.28 9.74 25.59 6.05 19.71 11.93 33.35 25.57 39.23 19.68 37.24 17.69 38.46 16.48 41.66 19.68 33.35 28"/></svg>