<svg id="Layer_1" data-name="Layer 1" xmlns="http://www.w3.org/2000/svg" viewBox="0 0 47.03 47.02"><defs><style>.cls-1{fill:#76bc21;}</style></defs><path class="cls-1" d="M23.51,47A23.51,23.51,0,1,1,47,23.51,23.53,23.53,0,0,1,23.51,47Zm0-45.14A21.64,21.64,0,1,0,45.15,23.51,21.65,21.65,0,0,0,23.51,1.88Z"/><path class="cls-1" d="M18.72,34.71a3.11,3.11,0,0,1-2.18-.9L13.68,31a3.09,3.09,0,0,1,0-4.36L27.19,13.08a3.09,3.09,0,0,1,4.36,0L34.41,16a3.09,3.09,0,0,1,0,4.36l-13.5,13.5A3.11,3.11,0,0,1,18.72,34.71ZM29.37,14.05a1.21,1.21,0,0,0-.86.36L15,27.91a1.21,1.21,0,0,0,0,1.71l2.86,2.87a1.22,1.22,0,0,0,1.71,0L33.09,19a1.21,1.21,0,0,0,0-1.71l-2.87-2.86A1.19,1.19,0,0,0,29.37,14.05Z"/><path class="cls-1" d="M36.05,35.23a.93.93,0,0,1-.66-.27l-4-4a.93.93,0,0,1-.19-1.07L37.41,17l-2.9-2.91L32.9,15.67a1,1,0,0,1-1.33,0,.94.94,0,0,1,0-1.33l2.28-2.28a.94.94,0,0,1,.66-.27h0a.94.94,0,0,1,.66.27l4,4a.93.93,0,0,1,.18,1.07l-6.2,12.94,3.52,3.52a.94.94,0,0,1-.66,1.6Z"/><path class="cls-1" d="M38.74,41a.93.93,0,0,1-.66-.27l-3.61-3.61a.94.94,0,0,1,0-1.32l3.08-3.08a.94.94,0,0,1,1.33,0l3.36,3.36a.94.94,0,1,1-1.33,1.33l-2.7-2.7-1.75,1.75L39.4,39.4a.94.94,0,0,1-.66,1.6Z"/><rect class="cls-1" x="21.13" y="-0.2" width="1.88" height="16.34" transform="translate(0.83 17.94) rotate(-45)"/><rect class="cls-1" x="7.63" y="13.3" width="1.88" height="16.34" transform="translate(-12.68 12.35) rotate(-45)"/></svg>