<svg id="Layer_1" data-name="Layer 1" xmlns="http://www.w3.org/2000/svg" viewBox="0 0 47.03 47.03"><defs><style>.cls-1{fill:#76bc21;}</style></defs><path class="cls-1" d="M23.51,0A23.52,23.52,0,1,0,47,23.51,23.54,23.54,0,0,0,23.51,0ZM8.9,7.57h3.86v3.74H5.66A21.82,21.82,0,0,1,8.9,7.57ZM34.08,37.23a1.05,1.05,0,0,1,1.44,0l2.41,2.4a19.48,19.48,0,0,1-1.59,1.29l-2.26-2.25a1,1,0,0,1-.29-.72A1,1,0,0,1,34.08,37.23Zm-7.55-9A1.06,1.06,0,0,0,25,29.68l3.76,3.76L25.2,37a1.32,1.32,0,0,1-1.28.35,1.3,1.3,0,0,1-1-.91L19.13,23.76A1.35,1.35,0,0,1,20.41,22a1.39,1.39,0,0,1,.4.06l12.71,3.83a1.33,1.33,0,0,1,.92,1,1.3,1.3,0,0,1-.36,1.28L30.3,32ZM19.26,16.94H8.8V13.2H19.26Zm-12.35,0h-4A21.37,21.37,0,0,1,4.5,13.2H6.91Zm0,1.89h5.85v3.74H1.9a21.86,21.86,0,0,1,.49-3.74ZM8.8,24.46h8.33l1.12,3.74H8.8Zm16.3-3.29-3.68-1.11a3.45,3.45,0,0,0-4.37,2.51h-2.4V18.83H25.1Zm-4-4.23V13.2H31.6v3.74H21.15Zm4-5.63H14.65V7.57H25.1ZM1.9,24.46h5v5.63H18.82l2.11,7a3.46,3.46,0,0,0,2.47,2.37,3.67,3.67,0,0,0,.86.1,3.43,3.43,0,0,0,2.44-1l3.6-3.6L32,36.62a3.11,3.11,0,0,0,.61,3.54l1.95,2A21.62,21.62,0,0,1,1.9,24.46ZM39.43,38.15,37,35.73a3.14,3.14,0,0,0-3.55-.61l-1.68-1.68,3.79-3.78a3.47,3.47,0,0,0-1.45-5.77L27,21.74V18.83h6.5V11.31H27V5.68H11.28A21.62,21.62,0,0,1,39.43,38.15Z"/></svg>