<svg id="Layer_1" data-name="Layer 1" xmlns="http://www.w3.org/2000/svg" viewBox="0 0 47.03 47.03"><defs><style>.cls-1{fill:#76bc21;}</style></defs><path class="cls-1" d="M23.51,47A23.52,23.52,0,1,1,47,23.51,23.54,23.54,0,0,1,23.51,47Zm0-45.15A21.64,21.64,0,1,0,45.15,23.51,21.65,21.65,0,0,0,23.51,1.88Z"/><path class="cls-1" d="M28.45,29.84a2.37,2.37,0,0,1-1.71-.71h0l-9.07-9.07a2.44,2.44,0,0,1,0-3.44l2.89-2.89a2.49,2.49,0,0,1,3.44,0l9.08,9.07a2.45,2.45,0,0,1,0,3.44l-2.9,2.89A2.4,2.4,0,0,1,28.45,29.84Zm-.19-2.23a.27.27,0,0,0,.39,0l2.89-2.89a.27.27,0,0,0,0-.39l-9.08-9.08a.23.23,0,0,0-.38,0l-2.9,2.9a.27.27,0,0,0,0,.38l9.08,9.08Z"/><path class="cls-1" d="M9.67,22.61a1.09,1.09,0,0,1-.77-.32L7.48,20.87a1.08,1.08,0,0,1-.31-.76,1.07,1.07,0,0,1,.31-.76L16,10.87a2.74,2.74,0,0,1,3.86,0l2.66,2.66a1.08,1.08,0,0,1,.31.76,1.11,1.11,0,0,1-.31.77l-3.68,3.67a1.05,1.05,0,0,1-.76.32h0a1,1,0,0,1-.76-.32L16.51,18l-6.22,4.43A1.11,1.11,0,0,1,9.67,22.61Zm.1-2.5h0L16,15.7a1.06,1.06,0,0,1,1.38.11l.64.64,2.15-2.16L18.29,12.4a.56.56,0,0,0-.81,0Z"/><rect class="cls-1" x="13.49" y="7.43" width="2.15" height="6.52" transform="translate(-3.29 13.43) rotate(-45)"/><path class="cls-1" d="M11.09,10.74a1.08,1.08,0,0,1-.76-1.84l2.3-2.31a1.08,1.08,0,0,1,1.53,1.53l-2.31,2.3A1.09,1.09,0,0,1,11.09,10.74Z"/><path class="cls-1" d="M13.6,24.85a1.17,1.17,0,0,1-.45-.09,1.08,1.08,0,0,1-.53-1.43l3.14-6.83a1.08,1.08,0,1,1,2,.9l-3.14,6.83A1.08,1.08,0,0,1,13.6,24.85Z"/><polyline class="cls-1" points="30.21 29.01 36.28 33.6 38.84 33.58 32.98 26.24"/><path class="cls-1" d="M38.47,36.38H4.74a.94.94,0,0,1,0-1.88H38.47a.94.94,0,0,1,0,1.88Z"/></svg>