<svg id="Layer_1" data-name="Layer 1" xmlns="http://www.w3.org/2000/svg" viewBox="0 0 132.31 172.07">
  <defs>
    <style>
      .cls-1 {
        fill: #5c0f8b;
      }
    </style>
  </defs>
  <g>
    <path class="cls-1" d="M65.83,57.79a1,1,0,0,1,.67.26L89.94,78.56l10,8.71V64.8h9V95.19L111,97l11.64,10.19a1,1,0,0,1-.67,1.77h-13v9.57c-.25.17-.5.34-.74.52l-10.44,7.69a19,19,0,0,0-11.9-10.88V98.58A10.71,10.71,0,0,0,75.17,87.89H56.48A10.7,10.7,0,0,0,45.79,98.58V115H45.1a38,38,0,0,0-22.39,7.34V108.94h-13a.91.91,0,0,1-.94-.66A.9.9,0,0,1,9,107.16L65.15,58.05a1,1,0,0,1,.68-.26m0-6a7,7,0,0,0-4.63,1.74L5.07,102.64a7,7,0,0,0,4.62,12.3h7v19.91l8.36-6.79a32,32,0,0,1,20-7.09h8.52a4.67,4.67,0,0,1-1.83-3.7V98.58a4.69,4.69,0,0,1,4.69-4.69H75.17a4.69,4.69,0,0,1,4.69,4.69v18.69A4.61,4.61,0,0,1,78,121h2.15A13,13,0,0,1,93,136.15a14.11,14.11,0,0,1-.45,1.84l19.17-14.13a14.76,14.76,0,0,1,3.18-1.8v-7.12h7a7,7,0,0,0,4.62-12.3L114.94,92.46V62.31a3.51,3.51,0,0,0-3.51-3.51h-14a3.51,3.51,0,0,0-3.51,3.51V74L70.45,53.53a7,7,0,0,0-4.62-1.74Z"/>
    <path class="cls-1" d="M120.53,133a2.77,2.77,0,0,1,2.24,1.13,2.76,2.76,0,0,1-.59,3.87L92.57,159.79a17,17,0,0,1-10,3.28H9V147H20.78l1.65-1.35,10.19-8.27A19.89,19.89,0,0,1,45.1,133H80.18a1,1,0,0,1,1,1.21c-.06.38-.69.83-1.4.83H62.64a9.51,9.51,0,1,0,0,19H91.06l1.59-1.17,26.25-19.34a2.71,2.71,0,0,1,1.63-.54m0-6a8.72,8.72,0,0,0-5.2,1.72L89.09,148H62.64a3.51,3.51,0,1,1,0-7H79.8a7.31,7.31,0,0,0,7.32-5.84,7,7,0,0,0-6.94-8.2H45.1a25.78,25.78,0,0,0-16.25,5.76L18.65,141H6.51A3.53,3.53,0,0,0,3,144.51v21.05a3.53,3.53,0,0,0,3.51,3.51H82.59a23,23,0,0,0,13.54-4.45l29.61-21.82A8.77,8.77,0,0,0,120.53,127Z"/>
    <path class="cls-1" d="M123.31,9V25.06H111.53l-1.65,1.34L99.69,34.68a19.9,19.9,0,0,1-12.48,4.41H52.12a1,1,0,0,1-1-1.2c.06-.39.69-.83,1.4-.83H69.67a9.51,9.51,0,0,0,0-19H41.25l-1.59,1.17L13.4,38.56a2.67,2.67,0,0,1-1.62.54A2.74,2.74,0,0,1,9.54,38a2.75,2.75,0,0,1,.59-3.86L39.74,12.28A16.89,16.89,0,0,1,49.71,9h73.6m2.49-6H49.71A23,23,0,0,0,36.18,7.45L6.57,29.27A8.77,8.77,0,1,0,17,43.38L43.22,24.05H69.67a3.51,3.51,0,0,1,0,7H52.51a7.31,7.31,0,0,0-7.32,5.84,7,7,0,0,0,6.93,8.19H87.21a25.77,25.77,0,0,0,16.25-5.75l10.2-8.28H125.8a3.53,3.53,0,0,0,3.51-3.51v-21A3.53,3.53,0,0,0,125.8,3Z"/>
  </g>
</svg>
