<svg id="Layer_1" data-name="Layer 1" xmlns="http://www.w3.org/2000/svg" viewBox="0 0 92.5 128.39">
  <defs>
    <style>
      .cls-1, .cls-2, .cls-3 {
        fill: none;
        stroke: #5c0f8b;
        stroke-width: 6px;
      }

      .cls-1, .cls-2 {
        stroke-miterlimit: 10;
      }

      .cls-2, .cls-3 {
        stroke-linecap: round;
      }

      .cls-3 {
        stroke-linejoin: round;
      }
    </style>
  </defs>
  <g>
    <circle class="cls-1" cx="46.25" cy="16.08" r="13.08"/>
    <line class="cls-2" x1="27.24" y1="29.87" x2="65.27" y2="29.87"/>
    <path class="cls-2" d="M19.21,22.86H18.1A15.1,15.1,0,0,0,3,38v72.33a15.1,15.1,0,0,0,15.1,15.1H74.4a15.1,15.1,0,0,0,15.1-15.1V38a15.1,15.1,0,0,0-15.1-15.1h0"/>
    <polyline class="cls-3" points="12.52 58.63 23.35 69.46 41.95 50.86"/>
    <line class="cls-3" x1="46.25" y1="65.22" x2="77.68" y2="65.22"/>
    <polyline class="cls-3" points="12.52 83.77 23.35 94.6 41.95 76"/>
    <line class="cls-3" x1="46.25" y1="90.36" x2="77.68" y2="90.36"/>
  </g>
</svg>
