<svg id="Layer_1" data-name="Layer 1" xmlns="http://www.w3.org/2000/svg" viewBox="0 0 92.5 128.39">
  <defs>
    <style>
      .cls-1 {
        fill: #5c0f8b;
      }
    </style>
  </defs>
  <g>
    <path class="cls-1" d="M46.25,32.16A16.08,16.08,0,1,1,62.33,16.08,16.09,16.09,0,0,1,46.25,32.16ZM46.25,6A10.08,10.08,0,1,0,56.33,16.08,10.09,10.09,0,0,0,46.25,6Z"/>
    <path class="cls-1" d="M65.27,32.87h-38a3,3,0,0,1,0-6h38a3,3,0,1,1,0,6Z"/>
    <path class="cls-1" d="M74.4,128.39H18.1A18.12,18.12,0,0,1,0,110.29V38a18.12,18.12,0,0,1,18.1-18.1h1.11a3,3,0,0,1,0,6H18.1A12.12,12.12,0,0,0,6,38v72.33a12.12,12.12,0,0,0,12.1,12.1H74.4a12.12,12.12,0,0,0,12.1-12.1V38a12.12,12.12,0,0,0-12.1-12.1,3,3,0,0,1,0-6A18.12,18.12,0,0,1,92.5,38v72.33A18.12,18.12,0,0,1,74.4,128.39Z"/>
    <path class="cls-1" d="M23.35,72.46h0a3,3,0,0,1-2.12-.88L10.4,60.75a3,3,0,1,1,4.24-4.24l8.71,8.71L39.83,48.74A3,3,0,1,1,44.07,53l-18.6,18.6A3,3,0,0,1,23.35,72.46Z"/>
    <path class="cls-1" d="M77.68,68.22H46.25a3,3,0,0,1,0-6H77.68a3,3,0,0,1,0,6Z"/>
    <path class="cls-1" d="M23.35,97.6h0a3,3,0,0,1-2.12-.88L10.4,85.89a3,3,0,0,1,4.24-4.24l8.71,8.7L39.83,73.87a3,3,0,1,1,4.24,4.25l-18.6,18.6A3,3,0,0,1,23.35,97.6Z"/>
    <path class="cls-1" d="M77.68,93.36H46.25a3,3,0,0,1,0-6H77.68a3,3,0,0,1,0,6Z"/>
  </g>
</svg>
