<svg id="Layer_1" data-name="Layer 1" xmlns="http://www.w3.org/2000/svg" viewBox="0 0 134.95 123.35">
  <defs>
    <style>
      .cls-1 {
        fill: #5c0f8b;
      }
    </style>
  </defs>
  <g>
    <path class="cls-1" d="M67.48,6.48c20,29,32.36,52.93,32.36,62.53,0,16.81-14.52,30.49-32.36,30.49S35.11,85.82,35.11,69c0-9.6,12.39-33.52,32.37-62.53m0-6.48A5.29,5.29,0,0,0,63.1,2.25C53,16.81,29.11,53.1,29.11,69c0,20.15,17.18,36.49,38.37,36.49S105.84,89.16,105.84,69c0-15.91-23.93-52.2-34-66.76A5.27,5.27,0,0,0,67.48,0Z"/>
    <rect class="cls-1" y="116.12" width="134.95" height="7.23" rx="3.62"/>
    <path class="cls-1" d="M11,93.73a7.07,7.07,0,0,0,11.18,5.4c1.88-1.35,7.34,1.35,9.35,2.5a10.34,10.34,0,0,1,2.36,1.81c0-11.62-11.67-16.68-14.75-17l-.24,0-.69-.05h-.15A7.07,7.07,0,0,0,11,93.73Z"/>
    <path class="cls-1" d="M7.59,64.43a4.41,4.41,0,0,0,1.53,5.76,4.36,4.36,0,0,0,2.73.67c1.43-.13,3.49,3,4.21,4.29a6.59,6.59,0,0,1,.69,1.72c3.68-6.22-1-12.61-2.5-13.78L14.14,63l-.36-.25-.08,0A4.38,4.38,0,0,0,7.59,64.43Z"/>
    <path class="cls-1" d="M127.17,64.43a4.43,4.43,0,0,1-1.53,5.76,4.38,4.38,0,0,1-2.74.67c-1.43-.13-3.49,3-4.21,4.29a6.59,6.59,0,0,0-.69,1.72c-3.68-6.22,1-12.61,2.5-13.78l.11-.09.36-.25.08,0A4.4,4.4,0,0,1,127.17,64.43Z"/>
    <path class="cls-1" d="M123.72,93.73a7.12,7.12,0,0,1-6.84,6.72,7,7,0,0,1-4.33-1.32c-1.89-1.35-7.34,1.35-9.36,2.5a10.34,10.34,0,0,0-2.36,1.81c0-11.62,11.67-16.68,14.76-17l.23,0,.7-.05h.14A7.06,7.06,0,0,1,123.72,93.73Z"/>
  </g>
</svg>
