<svg id="Layer_1" data-name="Layer 1" xmlns="http://www.w3.org/2000/svg" viewBox="0 0 166.65 138.69">
  <defs>
    <style>
      .cls-1 {
        fill: #5c0f8b;
      }
    </style>
  </defs>
  <g>
    <path class="cls-1" d="M38.52,103.53a3.4,3.4,0,0,0-3.4,3.4v18.36c1.94-1,4-2,6-3V109.53H64a54.78,54.78,0,0,0,6.65-6Z"/>
    <path class="cls-1" d="M25.18,103.53H3.4a3.4,3.4,0,0,0-3.4,3.4v21.81a3.4,3.4,0,0,0,3.4,3.4H24.33a42.84,42.84,0,0,1,4.23-3.08,1.72,1.72,0,0,0,0-.32V106.93A3.4,3.4,0,0,0,25.18,103.53Zm-2.6,22.61H6V109.53H22.58Z"/>
    <path class="cls-1" d="M83.73,75.34c.2-2.09.25-4.07.28-6H72.66a3.4,3.4,0,0,0-3.4,3.4V93.58a3.4,3.4,0,0,0,3.4,3.4h3.19a52.21,52.21,0,0,0,3.43-6h-4V75.34Z"/>
    <path class="cls-1" d="M56.72,75.34V91H6V75.34Zm2.6-6H3.4A3.4,3.4,0,0,0,0,72.74V93.58A3.4,3.4,0,0,0,3.4,97H59.32a3.4,3.4,0,0,0,3.4-3.4V72.74a3.4,3.4,0,0,0-3.4-3.4Z"/>
    <path class="cls-1" d="M22.58,41.15V56.79H6V41.15Zm2.6-6H3.4A3.4,3.4,0,0,0,0,38.55V59.39a3.4,3.4,0,0,0,3.4,3.4H25.18a3.4,3.4,0,0,0,3.4-3.4V38.55a3.4,3.4,0,0,0-3.4-3.4Z"/>
    <path class="cls-1" d="M94.19,35.15H38.52a3.4,3.4,0,0,0-3.4,3.4V59.39a3.4,3.4,0,0,0,3.4,3.4H84.29a29.54,29.54,0,0,1,1.17-6H41.12V41.15H91.59v4.62a47.09,47.09,0,0,1,6-6.16V38.55A3.4,3.4,0,0,0,94.19,35.15Z"/>
    <path class="cls-1" d="M128.55,0H72.65a3.41,3.41,0,0,0-3.41,3.4V25.21a3.41,3.41,0,0,0,3.41,3.4h43.88a74.48,74.48,0,0,1,15.43-4V3.4A3.41,3.41,0,0,0,128.55,0ZM126,22.61H75.24V6H126Z"/>
    <path class="cls-1" d="M56.71,6V22.61H6V6Zm2.6-6H3.4A3.4,3.4,0,0,0,0,3.4V25.21a3.4,3.4,0,0,0,3.4,3.4H59.31a3.4,3.4,0,0,0,3.4-3.4V3.4A3.4,3.4,0,0,0,59.31,0Z"/>
    <path class="cls-1" d="M133.49,43.3V29.44l-.78.12a68.89,68.89,0,0,0-14.41,3.73q-2.26.85-4.43,1.86a57.64,57.64,0,0,0-9.74,5.67c-1.15.82-2.24,1.69-3.28,2.58a43.8,43.8,0,0,0-3.26,3.1,37.25,37.25,0,0,0-4,5,29.64,29.64,0,0,0-2,3.4c-.32.65-.6,1.28-.83,1.89a22.65,22.65,0,0,0-1.44,6c0,.16,0,.32,0,.48-.19,1.87-.22,3.8-.26,5.84v.32c0,1.83-.07,3.78-.24,5.91A47.44,47.44,0,0,1,84.8,91c-.28.62-.58,1.26-.89,1.91-.68,1.4-1.4,2.77-2.18,4.09-.54,1-1.12,1.87-1.71,2.77-.86,1.3-1.79,2.56-2.76,3.78s-1.93,2.32-3,3.42q-1.26,1.35-2.58,2.58c-8.25,7.75-18,12.37-26.67,16.48l-.27.13c-2.58,1.22-5,2.38-7.37,3.59-.6.31-1.17.61-1.71.91-1.68.91-3.11,1.75-4.4,2.6l-.68.45H133.19a.29.29,0,0,0,.3-.3v-52l0,0,5,7.42v44.64a5.3,5.3,0,0,1-5.3,5.3H18.38a29.9,29.9,0,0,1,5.95-6.55,42.84,42.84,0,0,1,4.23-3.08,73.91,73.91,0,0,1,6.56-3.77c1.94-1,4-2,6-3,7.56-3.6,15.66-7.26,22.89-12.81a54.78,54.78,0,0,0,6.65-6A49.69,49.69,0,0,0,75.85,97a52.21,52.21,0,0,0,3.43-6c0-.08.09-.17.13-.26a42.69,42.69,0,0,0,4.32-15.38c.2-2.09.25-4.07.28-6,0-2.22.07-4.38.28-6.55a29.54,29.54,0,0,1,1.17-6,30.77,30.77,0,0,1,4-8.07c.68-1,1.4-2,2.18-2.95a47.09,47.09,0,0,1,6-6.16,63.08,63.08,0,0,1,18.94-11,74.48,74.48,0,0,1,15.43-4q3.25-.49,6.53-.67V45.71A30.35,30.35,0,0,0,133.49,43.3Z"/>
    <path class="cls-1" d="M166.65,112.87a4.36,4.36,0,0,1-8,2.42L138.49,85.15l-4.42-6.6-.58.39L132,80l-5.12,3.43a4.07,4.07,0,0,1-.88.45,4.13,4.13,0,0,1-1.54.29,4.35,4.35,0,0,1-3.63-1.94l-4.59-6.85-2.68-4a11.79,11.79,0,0,1-1.06-2A20.2,20.2,0,0,1,111,62.79a35.43,35.43,0,0,1,.14-6c.66-6.22,2.77-11.93,4.73-13.24a8.71,8.71,0,0,1,4.43-.84H121l.66,0,.34,0,.88.07.91.1,1.5.21.71.13H126l.78.15.71.15.08,0c.52.12,1.06.26,1.59.4s1.07.3,1.6.47l1.18.4.4.14,1.06.41h0l.05,0,.06,0,.38.15.54.24.35.16c.44.2.86.41,1.28.63l.05,0c.35.19.69.37,1,.57l.46.28.54.34.32.21h0l.6.42.57.44.55.46c.22.19.44.39.64.6s.41.41.6.62.37.42.54.64.34.44.49.67l7.27,10.86a4.35,4.35,0,0,1-1.2,6l-7.24,4.85,24.6,36.75A4.3,4.3,0,0,1,166.65,112.87Z"/>
  </g>
</svg>
