<svg id="Layer_1" data-name="Layer 1" xmlns="http://www.w3.org/2000/svg" viewBox="0 0 119.73 155.75">
  <defs>
    <style>
      .cls-1 {
        fill: #5c0f8b;
      }
    </style>
  </defs>
  <g>
    <path class="cls-1" d="M116.45,81.19a10.82,10.82,0,0,0-6.2-3.08,10.87,10.87,0,0,0-8.74-13.24,10.89,10.89,0,0,0-7-13.07l13.11-13.09c7.3-6.92.8-19.64-8.7-19.56a10.73,10.73,0,0,0-7.68,3.19c-12.9,12.37-34.63,37-50.36,45.42C17.53,33.54-13.92,49.31,6.7,67.52c19.13,11.64,11.81,25.07,11.87,42.53.46,2.47-8.2,9.21-12.52,12.92a3,3,0,0,0-.28,4.29h0a3,3,0,0,0,4.25.22c5.21-4.61,14.9-11.24,14.59-17.12,1-23,6-34.42-14.37-47.74-6.87-5.49-5.29-9,3-9.43,6.09,0,16.58,10.38,23.71,19.28C49.32,81.87,87.64,28.9,99,25.2c4.24.09,7.89,5.91,4.43,9.25L84.23,53.6l0,0C80,57.88,67.46,70.26,63.46,74.38a8.07,8.07,0,0,0-.68.89,32.65,32.65,0,0,0-2.53-3,3.5,3.5,0,0,0-5,4.88c.7.72,17.11,18,.15,35.12a3.65,3.65,0,0,0,0,5.13,3.49,3.49,0,0,0,4.88-.07c8.56-8.56,10.61-17.6,9.57-25.53a9.69,9.69,0,0,0,5-.23v0l.06,0A10.78,10.78,0,0,0,88,100.36a10.87,10.87,0,0,0,7.1,8.74c-42.82,47.44-33.63,15.83-61.36,41.32a3,3,0,0,0-.24,4.16l.11.12a3,3,0,0,0,4.24.33l10.06-8.62c11-2.53,23.21-3.56,31.33-12.92L104.73,108a19.51,19.51,0,0,0,1.71-1.42C112.48,100.51,125.93,90.23,116.45,81.19ZM75.34,84.55c-3.36,3.51-9.67-.27-8-4.88a4,4,0,0,1,.74-1.41C72.11,74,84,62.32,88.29,58h0l-.13.14c4.57-3.58,10.46,3.26,6.27,7.27L80.35,79.53Zm6.71,1.86L96.31,72.16c4.35-4.47,11.28,2.45,6.8,6.81,0,0-11.56,11.55-11.56,11.55C86.46,98.26,77.19,93.52,82.05,86.41Zm30.12,5.86c-3.64,2.37-11.46,15.78-16.82,10-5.81-5.33,7.67-13.22,10-16.83C109.7,81,116.65,87.91,112.17,92.27Z"/>
    <path class="cls-1" d="M42.64,25.19a3,3,0,0,1-3-3V3a3,3,0,0,1,6,0V22.17A3,3,0,0,1,42.64,25.19Z"/>
    <path class="cls-1" d="M56.87,31.36a3,3,0,0,1-2.14-5.16L68.27,12.67a3,3,0,1,1,4.27,4.27L59,30.48A3,3,0,0,1,56.87,31.36Z"/>
    <path class="cls-1" d="M28.2,30.89A3,3,0,0,1,26.07,30L12.53,16.47a3,3,0,1,1,4.27-4.28L30.34,25.73a3,3,0,0,1-2.14,5.16Z"/>
  </g>
</svg>
