<svg id="Layer_1" data-name="Layer 1" xmlns="http://www.w3.org/2000/svg" viewBox="0 0 143 143">
  <defs>
    <style>
      .cls-1 {
        fill: #5c0f8b;
      }
    </style>
  </defs>
  <g>
    <path class="cls-1" d="M120.45,22.55,112.83,39a77.1,77.1,0,0,0,0,65l7.62,16.45L104,112.83a77.15,77.15,0,0,0-65,0l-16.45,7.62L30.17,104a77.1,77.1,0,0,0,0-65L22.55,22.55,39,30.17a76.62,76.62,0,0,0,32.5,7.18A76.62,76.62,0,0,0,104,30.17l16.45-7.62m12.33-12.33-31.3,14.51a71.33,71.33,0,0,1-30,6.62,71.33,71.33,0,0,1-30-6.62L10.22,10.22l14.51,31.3a71.17,71.17,0,0,1,0,60l-14.51,31.3,31.3-14.51a71.2,71.2,0,0,1,60,0l31.3,14.51-14.51-31.3a71.17,71.17,0,0,1,0-60l14.51-31.3Z"/>
    <path class="cls-1" d="M1.28,0C4.71,8.18,7.92,19.32,8.22,27.8L15,14.6,28.56,8.76C20.12,7.9,9.22,4,1.28,0Z"/>
    <path class="cls-1" d="M0,141.72c8.18-3.43,19.32-6.64,27.8-6.94l-13.2-6.73L8.76,114.44C7.9,122.88,4,133.78,0,141.72Z"/>
    <path class="cls-1" d="M141.72,143c-3.43-8.18-6.64-19.32-6.94-27.8l-6.73,13.2-13.61,5.84C122.88,135.1,133.78,139,141.72,143Z"/>
    <path class="cls-1" d="M143,1.28c-8.18,3.43-19.32,6.64-27.8,6.94L128.4,15l5.84,13.61C135.1,20.12,139,9.22,143,1.28Z"/>
  </g>
</svg>
