<svg id="Layer_1" data-name="Layer 1" xmlns="http://www.w3.org/2000/svg" viewBox="0 0 145.21 107.87">
  <defs>
    <style>
      .cls-1 {
        fill: #5c0f8b;
      }
    </style>
  </defs>
  <g>
    <path class="cls-1" d="M114.91,37a4.94,4.94,0,0,1,0,7L88.53,70.42a4.94,4.94,0,0,1-7,0L68.35,57.23a4.95,4.95,0,0,1,7-7l9.7,9.7L107.92,37A4.94,4.94,0,0,1,114.91,37Z"/>
    <path class="cls-1" d="M91.28,0A53.72,53.72,0,0,0,53,16H40.27L0,73.69V88.07H36.89v16.14h19v-9.6A53.92,53.92,0,1,0,91.28,0ZM36.89,73.19H17.76L36.89,45.67Zm54.39,27.09a46.35,46.35,0,1,1,46.35-46.35A46.16,46.16,0,0,1,91.28,100.28Z"/>
  </g>
</svg>
