<svg id="Layer_1" data-name="Layer 1" xmlns="http://www.w3.org/2000/svg" viewBox="0 0 137.44 107.87">
  <defs>
    <style>
      .cls-1 {
        fill: #5c0f8b;
      }
    </style>
  </defs>
  <g>
    <g>
      <path class="cls-1" d="M56.78,25.17V74.69H91.14c-.63-.49-1.23-1-1.77-1.46a2.27,2.27,0,0,1-.58-.77H71V62.7H91.91l.9-2.23H82.62V51.05H104v9.51l2.24.9V25.17ZM59,27.41H80.38v9.75H59Zm0,12h9.75v9.42H59Zm9.75,33.07H59V62.7h9.75Zm11.64-12H59V51.05H80.39ZM92.28,48.81H71V39.39h21.3Zm11.71,0H94.51V39.39H104Zm0-11.65H82.61V27.41H104Z"/>
      <path class="cls-1" d="M115.57,71.84l-5.74,14.29h0a.23.23,0,0,1-.22.15.25.25,0,0,1-.16-.06.2.2,0,0,1-.06-.07.14.14,0,0,1,0-.09,7.43,7.43,0,0,0-2.43-4.27,13.1,13.1,0,0,0-4.23-2.69l-8.56-3.44a8.93,8.93,0,0,1-1.72-1c-.89-.61-1.78-1.36-2.57-2a.84.84,0,0,1-.18-.2,1.53,1.53,0,0,1-.25-1.55l2.86-7.13,1.33-3.31L95,56.93a.63.63,0,0,1,.13-.2.47.47,0,0,1,.17-.15A.77.77,0,0,1,96,56.5a.79.79,0,0,1,.23.14c2.48,2.1,3.26,2.93,5.1,3.66l.42.17,4.46,1.8L109,63.39C113.74,65.3,116.68,69.08,115.57,71.84Z"/>
    </g>
    <path class="cls-1" d="M83.5,0A53.8,53.8,0,0,0,41.91,19.65V16H28L0,32.41l7.38,14,15-8.76V88.57h-19v15.64H64A53.93,53.93,0,1,0,83.5,0Zm0,100.28a46.35,46.35,0,1,1,46.35-46.35A46,46,0,0,1,83.5,100.28Z"/>
  </g>
</svg>
