<svg id="Layer_1" data-name="Layer 1" xmlns="http://www.w3.org/2000/svg" viewBox="0 0 186.22 169.43">
  <defs>
    <style>
      .cls-1 {
        fill: #5c0f8b;
      }
    </style>
  </defs>
  <g>
    <rect class="cls-1" x="48.92" y="114.56" width="0.1" height="1.12"/>
    <rect class="cls-1" x="160.22" y="114.56" width="0.11" height="1.12"/>
    <polygon class="cls-1" points="34.27 155.74 34.27 151.56 10.49 151.56 10.49 145.56 34.27 145.56 34.27 141.38 46.7 148.56 34.27 155.74"/>
    <polygon class="cls-1" points="160.33 53.62 161.06 54.26 160.33 54.26 160.33 53.62"/>
    <rect class="cls-1" x="166.22" y="115.68" width="0.04" height="6"/>
    <path class="cls-1" d="M185.21,67.64,166.33,50.91V10.85a3,3,0,0,0-3-3H137.66a3,3,0,0,0-3,3v12L109.73.76a3,3,0,0,0-4,0L30,67.3a3,3,0,0,0,4,4.5L49,58.53v57.15H0v6H48.92v11.41H60.26V145.2h10.3v12.12h11v12.11h84.66V115.68h0v6h.07V58.93l14.9,13.2a3,3,0,0,0,4.23-.25A3,3,0,0,0,185.21,67.64ZM140.66,13.85h19.67V45.59L140.66,28.16Zm19.56,149.58H87.56V151.32h-11V139.2H66.26V127.09H54.92v-5.41h105.3Zm.11-109.17v61.42H55V53.26L107.73,7l26.93,23.87,6,5.31,13.63,12.08,6,5.36.73.64Z"/>
    <path class="cls-1" d="M120.23,98.4a3,3,0,0,0-3-2.81H97.89a3,3,0,0,0-3,3v19.35a3,3,0,0,0,3,3h19.35a3,3,0,0,0,3-3V98.59A1.21,1.21,0,0,0,120.23,98.4Zm-6,16.54H100.89V101.59h13.35Z"/>
    <rect class="cls-1" x="166.22" y="115.68" width="0.04" height="6"/>
  </g>
</svg>
