<svg id="Layer_1" data-name="Layer 1" xmlns="http://www.w3.org/2000/svg" viewBox="0 0 216.57 138.26">
  <defs>
    <style>
      .cls-1 {
        fill: #5c0f8b;
      }

      .cls-2 {
        fill: none;
        stroke: #5c0f8b;
        stroke-linecap: round;
        stroke-miterlimit: 10;
        stroke-width: 6px;
      }
    </style>
  </defs>
  <g>
    <path class="cls-1" d="M74.25,80.29l7.07,8.63-2.14,5.77a32.5,32.5,0,0,1-6.54,10.72L57,122.49a4.13,4.13,0,0,1-6.09-5.58L62.73,104a43,43,0,0,0,9.51-16.85l2-6.86M73,66.74l-5.57,19A37.68,37.68,0,0,1,59,100.58L47.18,113.49a9.2,9.2,0,0,0,13.57,12.42l15.63-17.08a37.88,37.88,0,0,0,7.55-12.38L87.07,88,85.9,86.53,77.26,76A20.71,20.71,0,0,1,73,66.74Z"/>
    <path class="cls-1" d="M143.48,5.06A9.94,9.94,0,1,1,133.55,15a10,10,0,0,1,9.93-9.94m0-5.06a15,15,0,1,0,15,15,15,15,0,0,0-15-15Z"/>
    <path class="cls-1" d="M118.41,30.24a7.25,7.25,0,0,1,2.07.23l10,6,0,0,.57.33.58.34.05,0,.78.51.35.25,3.47,2.38,0,0c10.16,6.92,30.87,21.29,31.1,21.46l.13.08.14.09a12.46,12.46,0,0,1,3.62,3.29,2.76,2.76,0,0,1-2,.91c-2.42,0-6.23-2.76-7.85-3.94-7.13-5.19-19.93-13.46-25.1-16.77l-2.83-1.82-2.77,1.91L100,66.73l-4.23,2.91,3,4.19,8.37,11.79a33.25,33.25,0,0,1,5.25,11.63l5.25,22.35a4.13,4.13,0,0,1-3.15,5,3.57,3.57,0,0,1-.8.09,4.46,4.46,0,0,1-4.16-3.48l-4-17a41.6,41.6,0,0,0-8.31-16.84l-4.95-6L83.61,70.76a13.19,13.19,0,0,1-2.76-9.89,14.46,14.46,0,0,1,4.69-9.26h0l.47-.4.21-.18.06-.06L112.6,31.39a13.74,13.74,0,0,1,5.81-1.15m0-5.06c-3.28,0-7.09.85-8.82,2.14L83.18,47c-.16.12-.31.26-.46.39h0c-.13.11-.25.21-.37.33a19.46,19.46,0,0,0-6.51,12.63A18.32,18.32,0,0,0,79.7,74l8.64,10.55,5,6a36.36,36.36,0,0,1,7.3,14.79l4,17a9.5,9.5,0,0,0,9.09,7.38,8.56,8.56,0,0,0,1.87-.2,9.2,9.2,0,0,0,7-11.09l-5.25-22.35a38.32,38.32,0,0,0-6-13.4L102.89,70.9l30.74-21.19c4.07,2.6,17.54,11.28,24.85,16.6,3.49,2.54,7.23,4.92,10.83,4.92a7.93,7.93,0,0,0,5.75-2.55c5.13-5.13-4.74-11.05-4.74-11.05S143.51,39,135.71,33.79h0l-1.31-.87-.07-.05-.7-.41h0L123,26.05a9.75,9.75,0,0,0-4.55-.87Z"/>
    <path class="cls-2" d="M171.4,123.39c-9-5.15-13.06-11.31-13.06-22.39,0-16.48,8.93-25.41,25.4-25.41a29.84,29.84,0,0,1,0,59.67H3"/>
  </g>
</svg>
