<svg id="Layer_1" data-name="Layer 1" xmlns="http://www.w3.org/2000/svg" viewBox="0 0 118.1 118.1">
  <defs>
    <style>
      .cls-1 {
        fill: #5c0f8b;
      }
    </style>
  </defs>
  <g>
    <path class="cls-1" d="M109.66,109.66l-25.85-12a58.8,58.8,0,0,0-49.52,0l-25.85,12,12-25.85a58.72,58.72,0,0,0,0-49.52L8.44,8.44l25.85,12a58.72,58.72,0,0,0,49.52,0l25.85-12-12,25.85a58.72,58.72,0,0,0,0,49.52ZM59.05,86.31a64.57,64.57,0,0,1,27.24,6l11.25,5.21L92.33,86.29a64.62,64.62,0,0,1,0-54.48l5.21-11.25L86.29,25.78a64.69,64.69,0,0,1-54.48,0L20.56,20.56l5.22,11.25a64.69,64.69,0,0,1,0,54.48L20.56,97.54l11.25-5.21A64.6,64.6,0,0,1,59.05,86.31Z"/>
    <path class="cls-1" d="M1.06,0C3.89,6.76,6.54,16,6.79,23l5.55-10.9L23.59,7.24C16.61,6.53,7.61,3.28,1.06,0Z"/>
    <path class="cls-1" d="M0,117c6.76-2.83,16-5.48,23-5.73l-10.9-5.55L7.24,94.51C6.53,101.49,3.28,110.49,0,117Z"/>
    <path class="cls-1" d="M117,118.1c-2.83-6.76-5.48-15.95-5.73-23L105.76,106l-11.25,4.83C101.49,111.58,110.49,114.83,117,118.1Z"/>
    <path class="cls-1" d="M118.1,1.06c-6.76,2.83-15.95,5.48-23,5.73L106,12.34l4.83,11.25C111.58,16.61,114.83,7.61,118.1,1.06Z"/>
  </g>
</svg>
